<svg xmlns="http://www.w3.org/2000/svg" width="301" height="240" fill="none"><path fill="#D9D9D9" stroke="#141414" d="M224.543 151.805 90.861 229.232c-.615.356-1.618.358-2.236.003L14 186.413v-4.163l136.196-73.75L225 148.381v2.787c0 .239-.164.468-.457.637Z"/><path fill="#D9D9D9" stroke="#141414" d="M15.111 87.656 148.94 10.65c.358-.206.695-.2.903.014L152.5 12.5l-3.159 91.527-132.563 79.757L14 182.14V89.574c0-.706.498-1.565 1.111-1.918Z"/><path fill="#D9D9D9" stroke="#141414" stroke-linejoin="bevel" d="M18.117 89.253 151.883 12.65c.617-.353 1.117-.067 1.117.64l-.78 93.094L17 183.5V91.172c0-.707.5-1.566 1.117-1.92Z"/><path fill="#0071E4" stroke="#141414" d="M145.745 27.356 23.755 97.52v74.297l121.99-70.165V27.356Z"/><path fill="#D9D9D9" stroke="#141414" d="M84.75 59.515c1.33-.765 2.41-2.627 2.41-4.158 0-1.53-1.08-2.151-2.41-1.386-1.331.766-2.41 2.627-2.41 4.158 0 1.531 1.079 2.152 2.41 1.386Z"/><path fill="#D9D9D9" stroke="#141414" d="M84.75 57.366c.299-.172.541-.59.541-.934 0-.345-.242-.484-.541-.312-.3.172-.542.59-.542.935 0 .344.243.483.542.311Z"/><path fill="#D9D9D9" stroke="#141414" stroke-linejoin="bevel" d="m16.67 183.72 135.516-77.22 72.351 41.195c.617.351.617.92 0 1.272l-133.952 76.27c-.617.351-1.617.351-2.234 0L16.67 183.72Z"/><path fill="#939393" stroke="#141414" d="m149.828 162.17-35.77 20.573c-.615.355-.615.929 0 1.283l18.238 10.489c.615.354 1.614.354 2.229 0l35.77-20.573c.615-.354.615-.928 0-1.283l-18.238-10.489c-.615-.354-1.613-.354-2.229 0Z"/><path fill="#BDBDBD" stroke="#141414" d="m147.391 182.693-16.711 9.611c-.615.354-.615.928 0 1.282l1.616.93c.616.354 1.614.354 2.229 0l16.711-9.612c.615-.354.615-.928 0-1.282l-1.616-.929c-.616-.354-1.614-.354-2.229 0Z"/><path fill="#BDBDBD" stroke="#141414" d="m166.447 171.731-16.831 9.682c-.616.354-.616.928 0 1.282l1.615.929c.616.354 1.614.354 2.23 0l16.831-9.681c.616-.354.616-.928 0-1.282l-1.615-.93c-.616-.354-1.614-.354-2.23 0Z"/><path fill="#fff" d="m70 110.17 4.037-8.564-3.918 2.295v-1.554l6.212-3.638v1.315l-4.038 8.565 4.11-2.407v1.567L70 111.5v-1.33Zm11.172-5.075c-.43.252-.828.453-1.194.602a5.637 5.637 0 0 1-1.123.321c-.422.08-.753.003-.992-.23-.239-.243-.358-.635-.358-1.176v-3.975c0-.447.084-.897.25-1.35.176-.457.4-.868.67-1.232.239-.316.533-.638.884-.965.35-.327.677-.592.98-.798.278-.19.573-.378.883-.56.367-.214.685-.382.956-.504.27-.13.573-.242.908-.335.382-.093.697-.12.943-.077.247.042.454.181.621.42.176.243.263.606.263 1.091v3.975c0 .503-.115 1.005-.346 1.504a4.918 4.918 0 0 1-.932 1.371 10.893 10.893 0 0 1-2.413 1.918Zm.024-1.568c.263-.154.482-.291.657-.413.183-.134.37-.291.562-.468.19-.177.334-.369.43-.574a1.57 1.57 0 0 0 .155-.679v-3.988c0-.429-.147-.646-.442-.651-.295-.014-.753.16-1.374.525-.621.364-1.079.72-1.373 1.07-.295.35-.442.745-.442 1.183v3.988c0 .234.051.399.155.497.103.089.255.108.454.056a3.44 3.44 0 0 0 .55-.182c.182-.088.405-.21.668-.364Zm8.667-3.523c-.43.252-.829.452-1.195.602a5.706 5.706 0 0 1-1.123.322c-.422.079-.752.002-.991-.231-.239-.242-.359-.634-.359-1.176v-3.974c0-.448.084-.898.251-1.35a5.11 5.11 0 0 1 .67-1.232c.238-.317.533-.64.883-.966.35-.326.677-.592.98-.797.278-.192.573-.378.884-.56.366-.215.684-.383.955-.504.271-.13.574-.243.908-.336.382-.093.697-.119.944-.077.247.042.454.182.62.42.176.243.264.606.264 1.092v3.974c0 .504-.116 1.005-.347 1.504a4.94 4.94 0 0 1-.931 1.372 10.895 10.895 0 0 1-2.413 1.917Zm.024-1.567c.262-.154.481-.291.657-.413.183-.136.37-.291.56-.469.192-.178.335-.368.431-.574.103-.22.155-.445.155-.678v-3.989c0-.43-.147-.646-.442-.65-.294-.015-.752.16-1.373.524s-1.08.72-1.374 1.07c-.295.35-.442.745-.442 1.183v3.989c0 .233.052.399.155.497.104.088.255.107.454.055.191-.046.374-.107.55-.181a9.73 9.73 0 0 0 .669-.364Zm5.166-10.696 2.652-1.553 1.911 5.374 1.887-7.6L104 82.5v9.083l-1.684.986v-6.717l-.036.02-1.959 7.866-1.493.875-2.02-5.535-.047.028v6.717l-1.708 1v-9.082Z"/><g clip-path="url(#a)"><path fill="#141414" stroke="#141414" d="M284.209 69.45 184.703 12c-1.435-.828-2.599-.157-2.599 1.5v77.253c0 1.657 1.164 3.672 2.599 4.5l9.991 5.769c1.539.888 2.74 3.117 2.585 4.794l-.535 5.798c-.237 2.556 2.491 5.779 4.272 5.05l11.423-4.678c.47-.193 1.069-.102 1.688.255l21.372 12.34 48.73 27.707c1.427.812 2.578.137 2.578-1.511V73.95c0-1.657-1.163-3.671-2.598-4.5Z"/><path fill="#0071E4" stroke="#141414" d="M278.555 69.45 179.049 12c-1.435-.828-2.598-.157-2.598 1.5v77.253c0 1.657 1.163 3.672 2.598 4.5l9.991 5.769c1.539.888 2.74 3.117 2.585 4.794l-.535 5.798c-.236 2.556 2.491 5.779 4.273 5.05l11.422-4.678c.471-.193 1.069-.102 1.688.255l21.373 12.34 48.729 27.707c1.427.812 2.578.137 2.578-1.511V73.95c0-1.657-1.163-3.671-2.598-4.5Z"/><mask id="b" width="90.067" height="69" x="183.494" y="48.574" fill="#000" maskUnits="userSpaceOnUse"><path fill="#fff" d="M183.494 48.574h90.067v69h-90.067z"/><path d="M187.47 64.87a10.042 10.042 0 0 1-1.205-.856V62.19c.194.166.383.323.568.472.194.155.379.283.554.384.259.15.476.206.651.168.185-.042.342-.176.472-.4l.194-.352-3.478-9.432 2.258 1.304 2.259 6.52.055.032 1.788-4.184 2.175 1.256-3.256 6.456c-.296.598-.67.942-1.122 1.032-.453.09-1.091-.101-1.913-.576Zm6.435 2.02.402.231c.185.107.365.067.54-.12.185-.192.342-.624.472-1.296.129-.682.194-1.658.194-2.928V61.61l5.21 3.008v6.208l1.039.6v3.68l-1.663-.96v-2.144l-4.351-2.512v2.144l-1.843-1.064v-3.68Zm4.795 2.815v-4.784l-1.525-.88v.208c0 1.078-.069 1.966-.207 2.664-.139.7-.338 1.182-.596 1.448l2.328 1.344Zm7.5 5.979c-.415-.24-.757-.453-1.025-.64a9.255 9.255 0 0 1-.859-.688 4.72 4.72 0 0 1-.804-.912A4.792 4.792 0 0 1 203 72.3a4.547 4.547 0 0 1-.208-1.4v-2.288c0-.512.069-.92.208-1.224.138-.304.318-.499.54-.584.194-.07.448-.072.762-.008.323.059.637.16.942.304.351.181.67.355.956.52.425.245.762.456 1.012.632.259.17.54.397.845.68.333.31.601.624.804.944.212.325.392.717.54 1.176.139.464.208.963.208 1.496v2.288c0 .48-.069.861-.208 1.144-.129.288-.3.472-.512.552-.185.075-.439.077-.763.008a4.731 4.731 0 0 1-.928-.328c-.277-.128-.61-.304-.998-.528Zm0-1.456c.379.219.665.352.859.4.194.037.328.003.402-.104.083-.101.125-.296.125-.584v-2.928c0-.427-.097-.781-.291-1.064-.194-.283-.559-.579-1.095-.888-.535-.31-.9-.435-1.094-.376-.194.059-.291.301-.291.728v2.928c0 .288.037.528.111.72.083.197.221.39.415.576.194.176.481.373.859.592Zm8.27 6.23c-.795-.458-1.427-.888-1.898-1.288a4.151 4.151 0 0 1-1.095-1.496c-.259-.608-.388-1.37-.388-2.288v-3.248c0-.949.129-1.653.388-2.112.268-.453.623-.722 1.067-.808.452-.08 1.011-.04 1.676.12l.693.192c.379.112.795.23 1.247.352.453.112.841.187 1.164.224v1.984c-.526-.005-1.422-.213-2.688-.624-.545-.176-.979-.26-1.302-.256-.314 0-.55.115-.707.344-.157.23-.236.606-.236 1.128v.864l.014.008c.13-.554.397-.858.804-.912.406-.053 1.044.171 1.912.672.758.438 1.33.886 1.718 1.344.397.464.665.971.804 1.52.139.55.208 1.235.208 2.056v1.056c0 .758-.093 1.307-.277 1.648-.185.331-.522.467-1.012.408-.489-.069-1.187-.365-2.092-.888Zm.028-1.44c.406.235.702.363.886.384.185.022.305-.037.361-.176.055-.138.083-.378.083-.72v-1.984c0-.394-.028-.693-.083-.896a1.28 1.28 0 0 0-.347-.584c-.175-.176-.462-.378-.859-.608-.416-.24-.725-.37-.928-.392-.194-.026-.328.04-.402.2-.065.155-.097.42-.097.792v1.904c0 .331.032.606.097.824.074.214.208.42.402.616.203.203.499.416.887.64Zm4.929-3.602 2.023 1.168v2.976l2.535 1.464v-2.976l2.023 1.168v7.744l-2.023-1.168V82.56l-2.535-1.464v3.232l-2.023-1.168v-7.744Zm11.563 14.58c-.415-.24-.757-.453-1.025-.64a9.255 9.255 0 0 1-.859-.688 4.72 4.72 0 0 1-.804-.912 4.792 4.792 0 0 1-.512-1.144 4.547 4.547 0 0 1-.208-1.4v-2.288c0-.512.069-.92.208-1.224.138-.303.318-.498.54-.584.194-.069.448-.072.762-.007.323.058.637.16.942.303.351.182.67.355.956.52.425.246.762.456 1.012.632.259.171.54.398.845.68.333.31.601.624.804.945.212.325.392.717.54 1.176.139.464.208.962.208 1.496v2.287c0 .48-.069.862-.208 1.145-.129.288-.3.471-.513.551-.184.075-.438.078-.762.009a4.731 4.731 0 0 1-.928-.328c-.277-.129-.61-.305-.998-.529Zm0-1.456c.379.22.665.352.859.4.194.038.328.003.402-.103.083-.102.125-.297.125-.585v-2.927c0-.427-.097-.782-.291-1.065-.194-.282-.559-.578-1.095-.888-.535-.309-.9-.434-1.094-.376-.194.06-.291.302-.291.729v2.928c0 .287.037.528.111.72.083.197.221.389.415.575.194.177.481.374.859.593Zm8.179-1.725 3.714 2.144c.73.421 1.279.808 1.649 1.16.369.352.609.693.72 1.024.12.325.18.717.18 1.176v.272c0 .405-.101.65-.304.736-.194.09-.508.064-.943-.08v.064c.508.389.901.802 1.178 1.24.277.437.416.874.416 1.312v.464c0 .704-.227 1.09-.679 1.16-.453.069-1.196-.195-2.231-.792l-3.7-2.136v-7.744Zm3.007 4.792c.36.208.628.336.804.384.175.048.295.037.36-.032.065-.08.097-.232.097-.456v-.192c0-.203-.083-.406-.249-.608-.157-.198-.508-.454-1.053-.768l-.97-.56v1.648l1.011.584Zm.042 3.304c.563.325.96.485 1.191.48.231-.006.347-.158.347-.456v-.288c0-.203-.046-.384-.139-.544a1.59 1.59 0 0 0-.429-.472 8.043 8.043 0 0 0-.901-.584l-1.122-.648v1.904l1.053.608Zm10.94-.212-2.453.152v-1.968l2.841-.408 1.635.944v10.384l-2.023-1.168v-7.936Zm8.038 4.64-2.453.153v-1.969l2.84-.407 1.636.944v10.383l-2.023-1.168v-7.936Zm6.915 7.993c0-.395.069-.701.208-.92a.895.895 0 0 1 .554-.432 5.16 5.16 0 0 1 .637-.112c.508-.069.763-.323.763-.76v-.752c0-.299-.088-.552-.264-.76-.175-.208-.54-.472-1.094-.792-.425-.245-1.344-.648-2.758-1.208v-1.744a28.6 28.6 0 0 1 3.021 1.488c.471.272.85.507 1.136.704.296.192.577.408.845.648.278.256.499.512.666.768.166.246.299.531.401.856.102.347.153.696.153 1.048v1.536c0 .299-.079.536-.236.712-.148.171-.346.28-.596.328-.314.053-.549.088-.706.104-.564.08-.846.275-.846.584v.72l-1.884-1.088v-.928Zm-.139 1.648 2.162 1.248v2.208l-2.162-1.248v-2.208Z"/></mask><path fill="#FFD600" d="M187.47 64.87a10.042 10.042 0 0 1-1.205-.856V62.19c.194.166.383.323.568.472.194.155.379.283.554.384.259.15.476.206.651.168.185-.042.342-.176.472-.4l.194-.352-3.478-9.432 2.258 1.304 2.259 6.52.055.032 1.788-4.184 2.175 1.256-3.256 6.456c-.296.598-.67.942-1.122 1.032-.453.09-1.091-.101-1.913-.576Zm6.435 2.02.402.231c.185.107.365.067.54-.12.185-.192.342-.624.472-1.296.129-.682.194-1.658.194-2.928V61.61l5.21 3.008v6.208l1.039.6v3.68l-1.663-.96v-2.144l-4.351-2.512v2.144l-1.843-1.064v-3.68Zm4.795 2.815v-4.784l-1.525-.88v.208c0 1.078-.069 1.966-.207 2.664-.139.7-.338 1.182-.596 1.448l2.328 1.344Zm7.5 5.979c-.415-.24-.757-.453-1.025-.64a9.255 9.255 0 0 1-.859-.688 4.72 4.72 0 0 1-.804-.912A4.792 4.792 0 0 1 203 72.3a4.547 4.547 0 0 1-.208-1.4v-2.288c0-.512.069-.92.208-1.224.138-.304.318-.499.54-.584.194-.07.448-.072.762-.008.323.059.637.16.942.304.351.181.67.355.956.52.425.245.762.456 1.012.632.259.17.54.397.845.68.333.31.601.624.804.944.212.325.392.717.54 1.176.139.464.208.963.208 1.496v2.288c0 .48-.069.861-.208 1.144-.129.288-.3.472-.512.552-.185.075-.439.077-.763.008a4.731 4.731 0 0 1-.928-.328c-.277-.128-.61-.304-.998-.528Zm0-1.456c.379.219.665.352.859.4.194.037.328.003.402-.104.083-.101.125-.296.125-.584v-2.928c0-.427-.097-.781-.291-1.064-.194-.283-.559-.579-1.095-.888-.535-.31-.9-.435-1.094-.376-.194.059-.291.301-.291.728v2.928c0 .288.037.528.111.72.083.197.221.39.415.576.194.176.481.373.859.592Zm8.27 6.23c-.795-.458-1.427-.888-1.898-1.288a4.151 4.151 0 0 1-1.095-1.496c-.259-.608-.388-1.37-.388-2.288v-3.248c0-.949.129-1.653.388-2.112.268-.453.623-.722 1.067-.808.452-.08 1.011-.04 1.676.12l.693.192c.379.112.795.23 1.247.352.453.112.841.187 1.164.224v1.984c-.526-.005-1.422-.213-2.688-.624-.545-.176-.979-.26-1.302-.256-.314 0-.55.115-.707.344-.157.23-.236.606-.236 1.128v.864l.014.008c.13-.554.397-.858.804-.912.406-.053 1.044.171 1.912.672.758.438 1.33.886 1.718 1.344.397.464.665.971.804 1.52.139.55.208 1.235.208 2.056v1.056c0 .758-.093 1.307-.277 1.648-.185.331-.522.467-1.012.408-.489-.069-1.187-.365-2.092-.888Zm.028-1.44c.406.235.702.363.886.384.185.022.305-.037.361-.176.055-.138.083-.378.083-.72v-1.984c0-.394-.028-.693-.083-.896a1.28 1.28 0 0 0-.347-.584c-.175-.176-.462-.378-.859-.608-.416-.24-.725-.37-.928-.392-.194-.026-.328.04-.402.2-.065.155-.097.42-.097.792v1.904c0 .331.032.606.097.824.074.214.208.42.402.616.203.203.499.416.887.64Zm4.929-3.602 2.023 1.168v2.976l2.535 1.464v-2.976l2.023 1.168v7.744l-2.023-1.168V82.56l-2.535-1.464v3.232l-2.023-1.168v-7.744Zm11.563 14.58c-.415-.24-.757-.453-1.025-.64a9.255 9.255 0 0 1-.859-.688 4.72 4.72 0 0 1-.804-.912 4.792 4.792 0 0 1-.512-1.144 4.547 4.547 0 0 1-.208-1.4v-2.288c0-.512.069-.92.208-1.224.138-.303.318-.498.54-.584.194-.069.448-.072.762-.007.323.058.637.16.942.303.351.182.67.355.956.52.425.246.762.456 1.012.632.259.171.54.398.845.68.333.31.601.624.804.945.212.325.392.717.54 1.176.139.464.208.962.208 1.496v2.287c0 .48-.069.862-.208 1.145-.129.288-.3.471-.513.551-.184.075-.438.078-.762.009a4.731 4.731 0 0 1-.928-.328c-.277-.129-.61-.305-.998-.529Zm0-1.456c.379.22.665.352.859.4.194.038.328.003.402-.103.083-.102.125-.297.125-.585v-2.927c0-.427-.097-.782-.291-1.065-.194-.282-.559-.578-1.095-.888-.535-.309-.9-.434-1.094-.376-.194.06-.291.302-.291.729v2.928c0 .287.037.528.111.72.083.197.221.389.415.575.194.177.481.374.859.593Zm8.179-1.725 3.714 2.144c.73.421 1.279.808 1.649 1.16.369.352.609.693.72 1.024.12.325.18.717.18 1.176v.272c0 .405-.101.65-.304.736-.194.09-.508.064-.943-.08v.064c.508.389.901.802 1.178 1.24.277.437.416.874.416 1.312v.464c0 .704-.227 1.09-.679 1.16-.453.069-1.196-.195-2.231-.792l-3.7-2.136v-7.744Zm3.007 4.792c.36.208.628.336.804.384.175.048.295.037.36-.032.065-.08.097-.232.097-.456v-.192c0-.203-.083-.406-.249-.608-.157-.198-.508-.454-1.053-.768l-.97-.56v1.648l1.011.584Zm.042 3.304c.563.325.96.485 1.191.48.231-.006.347-.158.347-.456v-.288c0-.203-.046-.384-.139-.544a1.59 1.59 0 0 0-.429-.472 8.043 8.043 0 0 0-.901-.584l-1.122-.648v1.904l1.053.608Zm10.94-.212-2.453.152v-1.968l2.841-.408 1.635.944v10.384l-2.023-1.168v-7.936Zm8.038 4.64-2.453.153v-1.969l2.84-.407 1.636.944v10.383l-2.023-1.168v-7.936Zm6.915 7.993c0-.395.069-.701.208-.92a.895.895 0 0 1 .554-.432 5.16 5.16 0 0 1 .637-.112c.508-.069.763-.323.763-.76v-.752c0-.299-.088-.552-.264-.76-.175-.208-.54-.472-1.094-.792-.425-.245-1.344-.648-2.758-1.208v-1.744a28.6 28.6 0 0 1 3.021 1.488c.471.272.85.507 1.136.704.296.192.577.408.845.648.278.256.499.512.666.768.166.246.299.531.401.856.102.347.153.696.153 1.048v1.536c0 .299-.079.536-.236.712-.148.171-.346.28-.596.328-.314.053-.549.088-.706.104-.564.08-.846.275-.846.584v.72l-1.884-1.088v-.928Zm-.139 1.648 2.162 1.248v2.208l-2.162-1.248v-2.208Z"/><path stroke="#141414" stroke-width="2" d="M187.47 64.87a10.042 10.042 0 0 1-1.205-.856V62.19c.194.166.383.323.568.472.194.155.379.283.554.384.259.15.476.206.651.168.185-.042.342-.176.472-.4l.194-.352-3.478-9.432 2.258 1.304 2.259 6.52.055.032 1.788-4.184 2.175 1.256-3.256 6.456c-.296.598-.67.942-1.122 1.032-.453.09-1.091-.101-1.913-.576Zm6.435 2.02.402.231c.185.107.365.067.54-.12.185-.192.342-.624.472-1.296.129-.682.194-1.658.194-2.928V61.61l5.21 3.008v6.208l1.039.6v3.68l-1.663-.96v-2.144l-4.351-2.512v2.144l-1.843-1.064v-3.68Zm4.795 2.815v-4.784l-1.525-.88v.208c0 1.078-.069 1.966-.207 2.664-.139.7-.338 1.182-.596 1.448l2.328 1.344Zm7.5 5.979c-.415-.24-.757-.453-1.025-.64a9.255 9.255 0 0 1-.859-.688 4.72 4.72 0 0 1-.804-.912A4.792 4.792 0 0 1 203 72.3a4.547 4.547 0 0 1-.208-1.4v-2.288c0-.512.069-.92.208-1.224.138-.304.318-.499.54-.584.194-.07.448-.072.762-.008.323.059.637.16.942.304.351.181.67.355.956.52.425.245.762.456 1.012.632.259.17.54.397.845.68.333.31.601.624.804.944.212.325.392.717.54 1.176.139.464.208.963.208 1.496v2.288c0 .48-.069.861-.208 1.144-.129.288-.3.472-.512.552-.185.075-.439.077-.763.008a4.731 4.731 0 0 1-.928-.328c-.277-.128-.61-.304-.998-.528Zm0-1.456c.379.219.665.352.859.4.194.037.328.003.402-.104.083-.101.125-.296.125-.584v-2.928c0-.427-.097-.781-.291-1.064-.194-.283-.559-.579-1.095-.888-.535-.31-.9-.435-1.094-.376-.194.059-.291.301-.291.728v2.928c0 .288.037.528.111.72.083.197.221.39.415.576.194.176.481.373.859.592Zm8.27 6.23c-.795-.458-1.427-.888-1.898-1.288a4.151 4.151 0 0 1-1.095-1.496c-.259-.608-.388-1.37-.388-2.288v-3.248c0-.949.129-1.653.388-2.112.268-.453.623-.722 1.067-.808.452-.08 1.011-.04 1.676.12l.693.192c.379.112.795.23 1.247.352.453.112.841.187 1.164.224v1.984c-.526-.005-1.422-.213-2.688-.624-.545-.176-.979-.26-1.302-.256-.314 0-.55.115-.707.344-.157.23-.236.606-.236 1.128v.864l.014.008c.13-.554.397-.858.804-.912.406-.053 1.044.171 1.912.672.758.438 1.33.886 1.718 1.344.397.464.665.971.804 1.52.139.55.208 1.235.208 2.056v1.056c0 .758-.093 1.307-.277 1.648-.185.331-.522.467-1.012.408-.489-.069-1.187-.365-2.092-.888Zm.028-1.44c.406.235.702.363.886.384.185.022.305-.037.361-.176.055-.138.083-.378.083-.72v-1.984c0-.394-.028-.693-.083-.896a1.28 1.28 0 0 0-.347-.584c-.175-.176-.462-.378-.859-.608-.416-.24-.725-.37-.928-.392-.194-.026-.328.04-.402.2-.065.155-.097.42-.097.792v1.904c0 .331.032.606.097.824.074.214.208.42.402.616.203.203.499.416.887.64Zm4.929-3.602 2.023 1.168v2.976l2.535 1.464v-2.976l2.023 1.168v7.744l-2.023-1.168V82.56l-2.535-1.464v3.232l-2.023-1.168v-7.744Zm11.563 14.58c-.415-.24-.757-.453-1.025-.64a9.255 9.255 0 0 1-.859-.688 4.72 4.72 0 0 1-.804-.912 4.792 4.792 0 0 1-.512-1.144 4.547 4.547 0 0 1-.208-1.4v-2.288c0-.512.069-.92.208-1.224.138-.303.318-.498.54-.584.194-.069.448-.072.762-.007.323.058.637.16.942.303.351.182.67.355.956.52.425.246.762.456 1.012.632.259.171.54.398.845.68.333.31.601.624.804.945.212.325.392.717.54 1.176.139.464.208.962.208 1.496v2.287c0 .48-.069.862-.208 1.145-.129.288-.3.471-.513.551-.184.075-.438.078-.762.009a4.731 4.731 0 0 1-.928-.328c-.277-.129-.61-.305-.998-.529Zm0-1.456c.379.22.665.352.859.4.194.038.328.003.402-.103.083-.102.125-.297.125-.585v-2.927c0-.427-.097-.782-.291-1.065-.194-.282-.559-.578-1.095-.888-.535-.309-.9-.434-1.094-.376-.194.06-.291.302-.291.729v2.928c0 .287.037.528.111.72.083.197.221.389.415.575.194.177.481.374.859.593Zm8.179-1.725 3.714 2.144c.73.421 1.279.808 1.649 1.16.369.352.609.693.72 1.024.12.325.18.717.18 1.176v.272c0 .405-.101.65-.304.736-.194.09-.508.064-.943-.08v.064c.508.389.901.802 1.178 1.24.277.437.416.874.416 1.312v.464c0 .704-.227 1.09-.679 1.16-.453.069-1.196-.195-2.231-.792l-3.7-2.136v-7.744Zm3.007 4.792c.36.208.628.336.804.384.175.048.295.037.36-.032.065-.08.097-.232.097-.456v-.192c0-.203-.083-.406-.249-.608-.157-.198-.508-.454-1.053-.768l-.97-.56v1.648l1.011.584Zm.042 3.304c.563.325.96.485 1.191.48.231-.006.347-.158.347-.456v-.288c0-.203-.046-.384-.139-.544a1.59 1.59 0 0 0-.429-.472 8.043 8.043 0 0 0-.901-.584l-1.122-.648v1.904l1.053.608Zm10.94-.212-2.453.152v-1.968l2.841-.408 1.635.944v10.384l-2.023-1.168v-7.936Zm8.038 4.64-2.453.153v-1.969l2.84-.407 1.636.944v10.383l-2.023-1.168v-7.936Zm6.915 7.993c0-.395.069-.701.208-.92a.895.895 0 0 1 .554-.432 5.16 5.16 0 0 1 .637-.112c.508-.069.763-.323.763-.76v-.752c0-.299-.088-.552-.264-.76-.175-.208-.54-.472-1.094-.792-.425-.245-1.344-.648-2.758-1.208v-1.744a28.6 28.6 0 0 1 3.021 1.488c.471.272.85.507 1.136.704.296.192.577.408.845.648.278.256.499.512.666.768.166.246.299.531.401.856.102.347.153.696.153 1.048v1.536c0 .299-.079.536-.236.712-.148.171-.346.28-.596.328-.314.053-.549.088-.706.104-.564.08-.846.275-.846.584v.72l-1.884-1.088v-.928Zm-.139 1.648 2.162 1.248v2.208l-2.162-1.248v-2.208Z" mask="url(#b)"/></g><defs><clipPath id="a"><path fill="#fff" d="M176.451 10.5h110.357v160.556H176.451z"/></clipPath></defs></svg>