<svg xmlns="http://www.w3.org/2000/svg" width="128" height="128" fill="none"><path fill="#B73DC2" stroke="#141414" d="M93.354 91.896c0 .367-.158.765-.535 1.195-.38.433-.963.875-1.755 1.312-1.583.873-3.907 1.675-6.821 2.355-5.821 1.357-13.888 2.202-22.815 2.202-8.928 0-16.994-.845-22.815-2.202-2.915-.68-5.238-1.482-6.821-2.355-.792-.437-1.375-.879-1.755-1.312-.378-.43-.535-.828-.535-1.195 0-.367.157-.764.535-1.194.38-.434.963-.875 1.755-1.312 1.583-.873 3.906-1.675 6.82-2.355 5.822-1.358 13.888-2.202 22.816-2.202 8.927 0 16.994.844 22.815 2.202 2.914.68 5.238 1.482 6.821 2.355.792.437 1.375.878 1.755 1.312.377.43.535.827.535 1.194Z"/><path fill="#B73DC2" d="M93.853 75.584H29.002v16.313h64.851V75.584Z"/><path fill="#B73DC2" stroke="#141414" d="M93.354 75.584c0 .367-.158.765-.535 1.195-.38.433-.963.875-1.755 1.311-1.583.873-3.907 1.676-6.821 2.355-5.821 1.358-13.888 2.203-22.815 2.203-8.928 0-16.994-.845-22.815-2.203-2.915-.68-5.238-1.482-6.821-2.355-.792-.436-1.375-.878-1.755-1.311-.378-.43-.535-.828-.535-1.195 0-.367.157-.764.535-1.195.38-.433.963-.875 1.755-1.311 1.583-.873 3.906-1.675 6.82-2.355 5.822-1.358 13.888-2.203 22.816-2.203 8.927 0 16.994.845 22.815 2.203 2.914.68 5.238 1.482 6.821 2.355.792.436 1.375.878 1.755 1.311.377.43.535.828.535 1.195Z"/><path fill="#B73DC2" d="M93.853 59.272H29.002v16.312h64.851V59.272Z"/><path fill="#B73DC2" stroke="#141414" d="M93.354 59.272c0 .367-.158.764-.535 1.194-.38.434-.963.875-1.755 1.312-1.583.873-3.907 1.675-6.821 2.355-5.821 1.358-13.888 2.202-22.815 2.202-8.928 0-16.994-.844-22.815-2.202-2.915-.68-5.238-1.482-6.821-2.355-.792-.437-1.375-.878-1.755-1.312-.378-.43-.535-.827-.535-1.194s.157-.765.535-1.195c.38-.433.963-.875 1.755-1.311 1.583-.873 3.906-1.676 6.82-2.356 5.822-1.357 13.888-2.202 22.816-2.202 8.927 0 16.994.845 22.815 2.202 2.914.68 5.238 1.483 6.821 2.356.792.436 1.375.878 1.755 1.311.377.43.535.828.535 1.195Z"/><path fill="#B73DC2" d="M93.853 42.96H29.002v16.312h64.851V42.96Z"/><path fill="#B73DC2" stroke="#141414" d="M93.354 42.96c0 .367-.158.765-.535 1.195-.38.433-.963.875-1.755 1.311-1.583.873-3.907 1.676-6.821 2.355-5.821 1.358-13.888 2.203-22.815 2.203-8.928 0-16.994-.845-22.815-2.203-2.915-.68-5.238-1.482-6.821-2.355-.792-.436-1.375-.878-1.755-1.311-.378-.43-.535-.828-.535-1.195 0-.367.157-.764.535-1.195.38-.433.963-.875 1.755-1.311 1.583-.873 3.906-1.676 6.82-2.355 5.822-1.358 13.888-2.203 22.816-2.203 8.927 0 16.994.845 22.815 2.203 2.914.68 5.238 1.482 6.821 2.355.792.436 1.375.878 1.755 1.311.377.43.535.828.535 1.195Z"/><path stroke="#141414" d="M29.496 59.272v32.624M29.496 42.96v16.553M93.413 76.238v16.19M93.413 43.082v16.19M93.413 59.926v16.19"/><mask id="a" fill="#fff"><path fill-rule="evenodd" d="M90.442 73.402h7.813v4.476c.923.277 1.804.648 2.632 1.104l3.582-3.582 5.525 5.525-3.626 3.627c.408.771.744 1.587.999 2.438h4.477v7.813h-4.477c-.234.781-.536 1.533-.9 2.248l3.527 3.527-5.525 5.525-3.396-3.396c-.882.503-1.826.911-2.818 1.208v4.477h-7.813v-4.477a13.573 13.573 0 0 1-2.818-1.208l-3.396 3.396-5.525-5.525 3.528-3.528a13.493 13.493 0 0 1-.9-2.247h-4.477V86.99h4.477c.255-.85.59-1.666.999-2.438l-3.627-3.627 5.525-5.525 3.582 3.582c.829-.455 1.71-.827 2.632-1.103v-4.477Zm3.907 23.257a5.763 5.763 0 1 0 0-11.526 5.763 5.763 0 0 0 0 11.526Z" clip-rule="evenodd"/></mask><path fill="#7E7E7E" fill-rule="evenodd" d="M90.442 73.402h7.813v4.476c.923.277 1.804.648 2.632 1.104l3.582-3.582 5.525 5.525-3.626 3.627c.408.771.744 1.587.999 2.438h4.477v7.813h-4.477c-.234.781-.536 1.533-.9 2.248l3.527 3.527-5.525 5.525-3.396-3.396c-.882.503-1.826.911-2.818 1.208v4.477h-7.813v-4.477a13.573 13.573 0 0 1-2.818-1.208l-3.396 3.396-5.525-5.525 3.528-3.528a13.493 13.493 0 0 1-.9-2.247h-4.477V86.99h4.477c.255-.85.59-1.666.999-2.438l-3.627-3.627 5.525-5.525 3.582 3.582c.829-.455 1.71-.827 2.632-1.103v-4.477Zm3.907 23.257a5.763 5.763 0 1 0 0-11.526 5.763 5.763 0 0 0 0 11.526Z" clip-rule="evenodd"/><path fill="#141414" d="M98.255 73.402h1v-1h-1v1Zm-7.813 0v-1h-1v1h1Zm7.813 4.476h-1v.745l.713.213.287-.958Zm2.632 1.104-.482.876.658.362.531-.53-.707-.708Zm3.582-3.582.707-.707-.707-.707-.707.707.707.707Zm5.525 5.525.707.707.708-.707-.708-.707-.707.707Zm-3.626 3.627-.707-.707-.522.522.345.652.884-.467Zm.999 2.438-.958.287.214.713h.744v-1Zm4.477 0h1v-1h-1v1Zm0 7.813v1h1v-1h-1Zm-4.477 0v-1h-.744l-.214.713.958.287Zm-.9 2.248-.891-.454-.33.647.514.514.707-.707Zm3.527 3.527.707.707.708-.707-.708-.707-.707.707Zm-5.525 5.525-.707.707.707.707.707-.707-.707-.707Zm-3.396-3.396.707-.707-.539-.54-.663.378.495.869Zm-2.818 1.208-.287-.958-.713.214v.744h1Zm0 4.477v1h1v-1h-1Zm-7.813 0h-1v1h1v-1Zm0-4.477h1v-.745l-.713-.213-.287.958Zm-2.818-1.208.496-.869-.663-.378-.54.54.707.707Zm-3.396 3.396-.707.707.707.707.707-.707-.707-.707Zm-5.525-5.525-.707-.707-.707.707.707.707.707-.707Zm3.528-3.528.707.707.513-.513-.329-.647-.891.453Zm-.9-2.247.958-.287-.214-.713h-.744v1Zm-4.477 0h-1v1h1v-1Zm0-7.813v-1h-1v1h1Zm4.477 0v1h.744l.214-.713-.958-.287Zm.999-2.438.884.467.345-.652-.522-.522-.707.707Zm-3.627-3.627-.707-.707-.707.707.707.707.707-.707Zm5.525-5.525.707-.707-.707-.707-.707.707.707.707Zm3.582 3.582-.707.707.531.531.658-.361-.482-.877Zm2.632-1.103.287.957.713-.213v-.744h-1Zm7.813-5.477h-7.813v2h7.813v-2Zm1 5.476v-4.476h-2v4.476h2Zm2.114.228a14.483 14.483 0 0 0-2.827-1.186l-.574 1.916c.854.256 1.67.6 2.437 1.022l.964-1.752Zm2.393-3.413-3.582 3.582 1.414 1.414 3.582-3.582-1.414-1.414Zm6.939 5.525-5.525-5.525-1.414 1.414 5.525 5.525 1.414-1.414Zm-3.626 5.04 3.626-3.626-1.414-1.414-3.626 3.627 1.414 1.414Zm1.25 1.445a14.536 14.536 0 0 0-1.073-2.619l-1.768.935c.378.715.689 1.47.925 2.258l1.916-.574Zm3.519-.713h-4.477v2h4.477v-2Zm1 8.813V86.99h-2v7.813h2Zm-5.477 1h4.477v-2h-4.477v2Zm-.009 1.701c.391-.768.716-1.575.967-2.414l-1.916-.574a12.518 12.518 0 0 1-.833 2.081l1.782.907Zm3.343 2.367-3.527-3.528-1.414 1.415 3.527 3.527 1.414-1.414Zm-5.525 6.939 5.525-5.525-1.414-1.414-5.525 5.525 1.414 1.414Zm-4.81-3.396 3.396 3.396 1.414-1.414L101.78 102l-1.414 1.414Zm-1.824 1.459a14.467 14.467 0 0 0 3.027-1.298l-.991-1.737c-.817.467-1.692.844-2.61 1.119l.574 1.916Zm.713 3.519v-4.477h-2v4.477h2Zm-8.813 1h7.813v-2h-7.813v2Zm-1-5.477v4.477h2v-4.477h-2Zm-2.313-.34c.947.541 1.96.978 3.026 1.298l.574-1.916a12.519 12.519 0 0 1-2.61-1.119l-.99 1.737ZM86.917 102l-3.396 3.396 1.414 1.414 3.396-3.396L86.917 102Zm-1.982 3.396-5.525-5.525-1.414 1.414 5.525 5.525 1.414-1.414Zm-5.525-4.111 3.528-3.528-1.414-1.414-3.528 3.528 1.414 1.414Zm.963-6.195c.251.84.576 1.646.966 2.414l1.783-.907a12.5 12.5 0 0 1-.833-2.08l-1.916.573Zm-3.519.713h4.477v-2h-4.477v2Zm-1-8.813v7.813h2V86.99h-2Zm5.477-1h-4.477v2h4.477v-2Zm.115-1.906c-.438.829-.8 1.705-1.073 2.619l1.916.574c.236-.788.547-1.543.925-2.258l-1.768-.935Zm-3.45-2.452 3.627 3.627 1.414-1.414-3.627-3.627-1.414 1.414Zm5.525-6.939-5.525 5.525 1.414 1.414 5.525-5.525-1.414-1.414Zm4.996 3.582-3.582-3.582-1.414 1.414 3.582 3.582 1.414-1.414Zm1.638-1.354c-.99.297-1.937.696-2.827 1.185l.964 1.753a12.5 12.5 0 0 1 2.437-1.022l-.574-1.916Zm-.713-3.52v4.478h2v-4.477h-2Zm9.67 17.496a4.763 4.763 0 0 1-4.763 4.762v2a6.763 6.763 0 0 0 6.763-6.762h-2Zm-4.763-4.763a4.763 4.763 0 0 1 4.763 4.763h2a6.763 6.763 0 0 0-6.763-6.763v2Zm-4.763 4.763a4.763 4.763 0 0 1 4.763-4.763v-2a6.763 6.763 0 0 0-6.763 6.763h2Zm4.763 4.762a4.763 4.763 0 0 1-4.763-4.762h-2a6.763 6.763 0 0 0 6.763 6.762v-2Z" mask="url(#a)"/><path fill="#7E7E7E" d="M90.509 74.382h6.896l-1.46 1.14h-7.02l1.584-1.14ZM76.623 87.986h3.275l-.693 1.167H75.87l.752-1.167ZM109.789 93.525v2.132l1.058-.451v-2.17l-1.058.489ZM96.313 107.412v2.132l.947-.452v-2.17l-.948.49Z"/><path stroke="#141414" d="m88.908 75.797 1.902-2.058M85.582 81.847l1.902-2.058M96.128 80.201l1.902-2.058M104.804 89.272l1.902-2.059M103.853 99.38l1.902-2.059M95.983 110.056l1.902-2.058M109.243 89.612l1.902-2.058M109.605 96.464l1.866-2.013M95.503 75.797l1.902-2.058M75.35 89.326l1.872-1.99"/><mask id="b" fill="#fff"><path fill-rule="evenodd" d="M88.57 75.402h7.814v4.476c.922.277 1.803.648 2.632 1.104l3.582-3.582 5.525 5.525-3.627 3.627c.408.771.744 1.587.999 2.438h4.477v7.813h-4.477c-.234.781-.536 1.533-.9 2.248l3.528 3.527-5.525 5.525-3.396-3.396c-.882.503-1.826.911-2.818 1.208v4.477H88.57v-4.477a13.573 13.573 0 0 1-2.817-1.208l-3.397 3.396-5.524-5.525 3.527-3.528a13.493 13.493 0 0 1-.9-2.247h-4.477V88.99h4.477c.255-.85.591-1.666 1-2.438l-3.627-3.627 5.525-5.525 3.582 3.582c.828-.455 1.71-.827 2.631-1.103v-4.477Zm3.908 23.257a5.763 5.763 0 1 0 0-11.525 5.763 5.763 0 0 0 0 11.525Z" clip-rule="evenodd"/></mask><path fill="#D9D9D9" fill-rule="evenodd" d="M88.57 75.402h7.814v4.476c.922.277 1.803.648 2.632 1.104l3.582-3.582 5.525 5.525-3.627 3.627c.408.771.744 1.587.999 2.438h4.477v7.813h-4.477c-.234.781-.536 1.533-.9 2.248l3.528 3.527-5.525 5.525-3.396-3.396c-.882.503-1.826.911-2.818 1.208v4.477H88.57v-4.477a13.573 13.573 0 0 1-2.817-1.208l-3.397 3.396-5.524-5.525 3.527-3.528a13.493 13.493 0 0 1-.9-2.247h-4.477V88.99h4.477c.255-.85.591-1.666 1-2.438l-3.627-3.627 5.525-5.525 3.582 3.582c.828-.455 1.71-.827 2.631-1.103v-4.477Zm3.908 23.257a5.763 5.763 0 1 0 0-11.525 5.763 5.763 0 0 0 0 11.525Z" clip-rule="evenodd"/><path fill="#141414" d="M96.384 75.402h1v-1h-1v1Zm-7.814 0v-1h-1v1h1Zm7.814 4.476h-1v.745l.713.213.287-.958Zm2.632 1.104-.482.876.658.362.53-.53-.706-.708Zm3.582-3.582.707-.707-.707-.707-.707.707.707.707Zm5.525 5.525.707.707.707-.707-.707-.707-.707.707Zm-3.627 3.627-.707-.707-.522.522.345.652.884-.467Zm.999 2.438-.957.287.213.713h.744v-1Zm4.477 0h1v-1h-1v1Zm0 7.813v1h1v-1h-1Zm-4.477 0v-1h-.744l-.213.713.957.287Zm-.9 2.248-.891-.454-.329.647.513.514.707-.707Zm3.528 3.527.707.707.707-.707-.707-.707-.707.707Zm-5.525 5.525-.707.707.707.707.707-.707-.707-.707Zm-3.396-3.396.707-.707-.54-.54-.663.378.496.869Zm-2.818 1.208-.287-.958-.713.214v.744h1Zm0 4.477v1h1v-1h-1Zm-7.814 0h-1v1h1v-1Zm0-4.477h1v-.745l-.713-.213-.287.958Zm-2.817-1.208.495-.869-.663-.378-.54.54.708.707Zm-3.397 3.396-.707.707.707.707.708-.707-.707-.707Zm-5.524-5.525-.708-.707-.707.707.707.707.708-.707Zm3.527-3.528.707.707.514-.513-.33-.647-.89.453Zm-.9-2.247.958-.287-.214-.713h-.744v1Zm-4.477 0h-1v1h1v-1Zm0-7.813v-1h-1v1h1Zm4.477 0v1h.744l.214-.713-.958-.287Zm1-2.438.883.467.346-.652-.523-.522-.707.707Zm-3.627-3.627-.708-.707-.707.707.707.707.708-.707Zm5.525-5.525.707-.707-.707-.707-.708.707.707.707Zm3.582 3.582-.707.707.53.531.659-.361-.482-.877Zm2.631-1.103.287.957.713-.213v-.744h-1Zm7.814-5.477H88.57v2h7.814v-2Zm1 5.476v-4.476h-2v4.476h2Zm2.114.228c-.89-.49-1.836-.889-2.827-1.186l-.574 1.916c.854.256 1.67.6 2.437 1.022l.964-1.752Zm2.393-3.413-3.582 3.582 1.414 1.414 3.582-3.582-1.414-1.414Zm6.939 5.525-5.525-5.525-1.414 1.414 5.525 5.525 1.414-1.414Zm-3.627 5.04 3.627-3.626-1.414-1.414-3.627 3.627 1.414 1.414Zm1.25 1.445a14.536 14.536 0 0 0-1.073-2.619l-1.768.935c.378.715.689 1.47.926 2.258l1.915-.574Zm3.519-.713h-4.477v2h4.477v-2Zm1 8.813V88.99h-2v7.813h2Zm-5.477 1h4.477v-2h-4.477v2Zm-.008 1.701c.39-.768.715-1.575.966-2.414l-1.915-.574a12.522 12.522 0 0 1-.834 2.081l1.783.907Zm3.343 2.367-3.528-3.528-1.414 1.415 3.528 3.527 1.414-1.414Zm-5.525 6.939 5.525-5.525-1.414-1.414-5.525 5.525 1.414 1.414Zm-4.81-3.396 3.396 3.396 1.414-1.414L99.909 104l-1.414 1.414Zm-1.824 1.459a14.47 14.47 0 0 0 3.026-1.298l-.99-1.737a12.47 12.47 0 0 1-2.61 1.119l.574 1.916Zm.713 3.519v-4.477h-2v4.477h2Zm-8.814 1h7.814v-2H88.57v2Zm-1-5.477v4.477h2v-4.477h-2Zm-2.313-.34c.947.541 1.961.978 3.026 1.298l.574-1.916a12.519 12.519 0 0 1-2.609-1.119l-.991 1.737ZM85.045 104l-3.396 3.396 1.415 1.414 3.396-3.396L85.046 104Zm-1.981 3.396-5.525-5.525-1.415 1.414 5.525 5.525 1.415-1.414Zm-5.525-4.111 3.527-3.528-1.414-1.414-3.528 3.528 1.415 1.414Zm.962-6.195c.252.84.576 1.646.967 2.414l1.782-.907a12.509 12.509 0 0 1-.833-2.08l-1.916.573Zm-3.519.713h4.477v-2h-4.477v2Zm-1-8.813v7.813h2V88.99h-2Zm5.477-1h-4.477v2h4.477v-2Zm.115-1.906c-.438.829-.799 1.705-1.073 2.619l1.916.574c.236-.788.547-1.543.925-2.258l-1.768-.935Zm-3.45-2.452 3.627 3.627 1.414-1.414-3.626-3.627-1.415 1.414Zm5.525-6.939-5.525 5.525 1.415 1.414 5.525-5.525-1.415-1.414Zm4.997 3.582-3.582-3.582-1.415 1.414 3.582 3.582 1.415-1.414Zm1.637-1.354c-.99.297-1.937.696-2.826 1.185l.964 1.753a12.5 12.5 0 0 1 2.436-1.022l-.574-1.916Zm-.713-3.52v4.478h2v-4.477h-2Zm9.67 17.496a4.763 4.763 0 0 1-4.762 4.762v2a6.763 6.763 0 0 0 6.762-6.762h-2Zm-4.762-4.763a4.763 4.763 0 0 1 4.762 4.763h2a6.763 6.763 0 0 0-6.762-6.763v2Zm-4.764 4.763a4.763 4.763 0 0 1 4.764-4.763v-2a6.763 6.763 0 0 0-6.764 6.763h2Zm4.764 4.762a4.763 4.763 0 0 1-4.764-4.762h-2a6.763 6.763 0 0 0 6.764 6.762v-2Z" mask="url(#b)"/><path fill="#003F7F" stroke="#141414" d="m36.848 50.351-.132-.097H19.699a1.5 1.5 0 0 1-1.5-1.5V26.06l5.875-7.951h15.762a2.5 2.5 0 0 1 2.5 2.5V49.69a1.5 1.5 0 0 1-.661 1.244l-2.103 1.416-2.724-1.999Z"/><path fill="#0071E4" stroke="#141414" d="M38.648 20.182a1.5 1.5 0 0 1 1.5 1.5v29.502a1.5 1.5 0 0 1-1.5 1.5H18.156a1.5 1.5 0 0 1-1.5-1.5V28.221l5.877-8.039h16.115Z"/><path fill="#579DE5" d="M23.346 26.3v-5.912l-.661.425-5.2 7.101 3.657.375a2 2 0 0 0 2.204-1.99Z"/><path stroke="#141414" d="M16.277 28.39h4.91a2 2 0 0 0 2-2v-6.104"/></svg>