<svg xmlns="http://www.w3.org/2000/svg" width="184" height="48" fill="none"><path fill="#fff" fill-rule="evenodd" d="M37.252 10.462c.799-.702 1.04-1.296 1.04-1.747 0-.452-.241-1.046-1.04-1.747-.795-.7-2.023-1.39-3.655-1.997-3.253-1.209-7.835-1.983-12.961-1.983s-9.708.774-12.961 1.983c-1.632.607-2.86 1.297-3.656 1.997-.798.701-1.04 1.295-1.04 1.747 0 .451.242 1.045 1.04 1.747.796.699 2.024 1.39 3.656 1.996 3.253 1.209 7.835 1.983 12.961 1.983s9.708-.774 12.961-1.983c1.632-.607 2.86-1.297 3.655-1.996Zm-16.616 5.307c10.482 0 18.98-3.158 18.98-7.054 0-3.897-8.498-7.055-18.98-7.055-10.482 0-18.98 3.158-18.98 7.055 0 3.896 8.498 7.054 18.98 7.054ZM7.923 21.826c3.22 1.246 7.715 2.031 12.713 2.031 4.998 0 9.492-.785 12.713-2.03 1.613-.625 2.873-1.351 3.718-2.125.845-.772 1.225-1.541 1.225-2.273h1.324c0 1.226-.645 2.322-1.654 3.245-1.009.922-2.431 1.723-4.134 2.381-3.409 1.32-8.073 2.12-13.192 2.12s-9.783-.8-13.192-2.12c-1.703-.658-3.125-1.459-4.134-2.381-1.01-.923-1.654-2.019-1.654-3.245H2.98c0 .732.38 1.5 1.226 2.274.845.773 2.105 1.5 3.718 2.123ZM7.944 30.62c3.232 1.268 7.742 2.067 12.757 2.067 4.823 0 9.181-.74 12.385-1.926l.456 1.26c-3.38 1.252-7.899 2.008-12.841 2.008-5.137 0-9.817-.816-13.238-2.159-1.708-.67-3.135-1.485-4.147-2.424-1.013-.94-1.66-2.054-1.66-3.302h1.328c0 .744.382 1.527 1.23 2.314.848.787 2.112 1.526 3.73 2.161ZM7.918 39.23c3.222 1.244 7.719 2.028 12.718 2.028 1.771 0 3.481-.098 5.096-.281l.146 1.339c-1.664.188-3.423.29-5.242.29-5.117 0-9.78-.8-13.187-2.116-1.702-.657-3.124-1.456-4.133-2.377-1.009-.92-1.66-2.019-1.66-3.254H2.98c0 .718.375 1.48 1.22 2.251.845.772 2.105 1.497 3.719 2.12Zm29.467-2.427c.627-.668.907-1.321.907-1.944h1.324c0 1.069-.49 2.038-1.274 2.874-.781.833-1.886 1.57-3.214 2.199l-.559-1.221c1.239-.588 2.187-1.237 2.816-1.908Z" clip-rule="evenodd"/><path fill="#fff" fill-rule="evenodd" d="M1.656 34.859V8.715h1.38v26.144h-1.38ZM38.373 22.368V8.715h1.243v13.653h-1.242Zm0 12.49v-4.19h1.243v4.19h-1.242Z" clip-rule="evenodd"/><path fill="#fff" fill-rule="evenodd" d="m35.21 28.694-.161.284c-1.103 1.931-3.656 7.209-4.488 9.358-.24.618-1.075.63-1.36.069-.416-.816-.836-1.507-1.378-1.997-.518-.47-1.17-.775-2.114-.775-.622 0-1.34.392-1.871.926-.26.26-.434.515-.517.704a.817.817 0 0 0-.04.113c.114.149.285.362.494.622.612.764 1.547 1.93 2.333 3.053a38.83 38.83 0 0 1 1.335 2.045l.235.384c.257.422.485.797.737 1.175.044.065.17.172.462.255.28.08.64.113 1.026.097.383-.016.764-.08 1.078-.175.333-.1.518-.213.583-.278.1-.1.242-.294.422-.607.175-.303.367-.684.573-1.13.414-.892.869-2.004 1.353-3.2l.173-.427c.913-2.26 1.922-4.758 2.896-6.427 1.957-3.355 3.775-6.237 7.623-10.726.2-.234.339-.434.407-.595a.381.381 0 0 0 .043-.155c-.014-.018-.093-.111-.394-.21-.347-.116-.898-.21-1.734-.242-.736-.028-1.513.268-2.32.841-.805.571-1.589 1.382-2.318 2.292-1.342 1.672-2.429 3.585-3.078 4.726Zm9.842-7.415.002.006-.002-.006Zm-21.78 16.144v-.01.01Zm16.569-16.832c.94-.668 2.003-1.127 3.136-1.084.892.035 1.583.136 2.1.307.507.169.945.439 1.165.884.228.46.135.924-.014 1.27-.148.345-.389.667-.619.936-3.783 4.413-5.556 7.225-7.484 10.53-.923 1.583-1.9 3.997-2.829 6.296l-.156.387c-.482 1.191-.95 2.333-1.379 3.26a16 16 0 0 1-.628 1.236c-.197.343-.409.657-.634.882-.294.294-.726.486-1.137.61-.429.13-.92.21-1.405.23a4.688 4.688 0 0 1-1.439-.145c-.44-.124-.912-.358-1.204-.796a35.682 35.682 0 0 1-.775-1.234l-.225-.367a37.297 37.297 0 0 0-1.29-1.978c-.763-1.09-1.604-2.137-2.21-2.893a37.501 37.501 0 0 1-.651-.825c-.35-.467-.202-1.031-.055-1.366.166-.383.453-.77.793-1.112.665-.668 1.7-1.315 2.808-1.315 1.28 0 2.247.433 3.002 1.117.424.384.774.84 1.076 1.319 1.101-2.552 3.14-6.723 4.112-8.423l.162-.284c.645-1.137 1.782-3.139 3.194-4.899.77-.96 1.642-1.874 2.585-2.543Z" clip-rule="evenodd"/><path fill="#fff" d="M52.61 19.504V7.668h4.348c.906 0 1.71.134 2.41.4a4.65 4.65 0 0 1 1.79 1.153 4.898 4.898 0 0 1 1.101 1.842c.254.725.38 1.553.38 2.482 0 .836-.112 1.616-.339 2.34-.22.72-.574 1.35-1.06 1.893-.48.542-1.115.966-1.905 1.27-.79.304-1.75.456-2.882.456H52.61Zm1.947-1.593h1.904c1.022 0 1.836-.191 2.444-.573a3.218 3.218 0 0 0 1.308-1.569c.265-.664.398-1.416.398-2.257 0-.642-.078-1.223-.232-1.743a3.5 3.5 0 0 0-.72-1.345 3.144 3.144 0 0 0-1.243-.863c-.502-.199-1.101-.299-1.797-.299h-2.062V17.911Zm11.256 1.593.696-2.008c.243-.703.478-1.37.704-2l1.408-4.067c.26-.73.491-1.39.696-1.976.204-.592.41-1.186.62-1.784h2.527c.215.614.422 1.214.62 1.801l.688 1.967 1.4 4.075.696 2.017c.243.686.472 1.345.687 1.975h-2.02a5213.43 5213.43 0 0 0-1.31-4.067L71.272 9.38h-.165l-1.98 6c-.215.653-.439 1.337-.67 2.05l-.68 2.075h-1.963Zm2.427-2.788.182-1.494h5.731l.15 1.494H68.24Zm14.15 2.788V7.967l.754 1.42h-4.63V7.669h9.682v1.718h-4.63l.762-1.42V19.505H82.39Zm7.787 0 .696-2.008c.243-.703.478-1.37.704-2l1.408-4.067c.26-.73.491-1.39.696-1.976.204-.592.411-1.186.62-1.784h2.527c.215.614.422 1.214.621 1.801.204.586.433 1.242.688 1.967l1.4 4.075.695 2.017c.243.686.472 1.345.687 1.975h-2.02a5213.43 5213.43 0 0 0-1.31-4.067L95.636 9.38h-.165l-1.98 6c-.215.653-.439 1.337-.67 2.05-.232.714-.459 1.406-.68 2.075h-1.963Zm2.427-2.788.182-1.494h5.731l.15 1.494h-6.063Zm18.272 2.788V7.668h1.723l1.863 2.665c.596.847 1.184 1.688 1.764 2.523l2.327 3.312h.158v-8.5h1.83v11.836h-1.698c-.535-.769-1.101-1.574-1.698-2.415-.59-.846-1.239-1.773-1.946-2.78l-2.344-3.345h-.149v8.54h-1.83Zm20.373.2c-1.027 0-1.922-.164-2.684-.49a5.243 5.243 0 0 1-1.888-1.345 5.736 5.736 0 0 1-1.118-1.958 7.254 7.254 0 0 1-.373-2.333c0-1.145.229-2.18.688-3.104a5.313 5.313 0 0 1 2.029-2.207c.894-.548 1.99-.822 3.288-.822.983 0 1.847.158 2.592.473a5.133 5.133 0 0 1 1.88 1.32 5.528 5.528 0 0 1 1.143 1.95c.254.741.381 1.538.381 2.39 0 1.168-.232 2.214-.696 3.138a5.278 5.278 0 0 1-2.029 2.19c-.883.532-1.954.797-3.213.797Zm-.042-1.644c.679 0 1.267-.122 1.764-.365a3.457 3.457 0 0 0 1.234-.996c.326-.42.566-.9.721-1.436.16-.537.24-1.098.24-1.685a5.79 5.79 0 0 0-.257-1.76 4.215 4.215 0 0 0-.762-1.427 3.385 3.385 0 0 0-1.234-.954c-.491-.233-1.06-.349-1.706-.349-.668 0-1.25.12-1.747.357a3.538 3.538 0 0 0-1.251.988c-.331.42-.58.899-.745 1.436a5.755 5.755 0 0 0-.249 1.71c0 .597.08 1.164.241 1.7.16.537.403 1.016.728 1.437.332.415.749.744 1.251.987.502.238 1.093.357 1.772.357Zm13.12 1.444V7.967l.754 1.42h-4.63V7.669h9.682v1.718h-4.63l.762-1.42V19.505h-1.938Zm10.164 0V7.668h7.52v1.644H155.311l1.085-1.344V19.205l-.969-1.344h6.625v1.643h-7.561Zm1.474-5.195v-1.586h5.74v1.586h-5.74Zm14.415 5.386c-.491 0-.991-.044-1.499-.133-.502-.083-.972-.19-1.408-.323a6.968 6.968 0 0 1-1.044-.399l.158-1.817c.381.215.773.4 1.176.556.408.15.82.268 1.234.357.42.083.836.124 1.25.124.453 0 .856-.058 1.21-.174.353-.122.629-.307.828-.556.204-.255.306-.581.306-.98 0-.381-.113-.697-.339-.946-.221-.249-.544-.464-.969-.647-.425-.188-.933-.37-1.524-.548a11.022 11.022 0 0 1-1.897-.755c-.524-.282-.925-.634-1.201-1.054-.27-.42-.405-.963-.405-1.627 0-.642.146-1.215.438-1.718.299-.504.74-.896 1.326-1.179.59-.287 1.328-.431 2.211-.431.353 0 .707.025 1.06.075.359.05.701.116 1.027.199.331.077.632.168.903.274.27.105.505.213.704.323l-.174 1.81a5.553 5.553 0 0 0-1.077-.565 6.32 6.32 0 0 0-1.118-.348 4.602 4.602 0 0 0-1.019-.125c-.403 0-.773.058-1.109.174a1.827 1.827 0 0 0-.812.532c-.204.232-.307.53-.307.896 0 .332.089.611.266.838.176.227.455.43.836.606.381.177.872.36 1.474.548.944.299 1.69.603 2.236.913.547.304.933.664 1.16 1.079.232.415.348.935.348 1.56 0 .67-.149 1.264-.448 1.785-.292.52-.753.93-1.383 1.228-.624.299-1.43.448-2.418.448Z"/><path fill="#9849AD" d="M56.155 40.998c-.491 0-.99-.044-1.499-.133a10.98 10.98 0 0 1-1.408-.324 6.976 6.976 0 0 1-1.043-.398l.157-1.818c.381.216.773.401 1.176.556.409.15.82.269 1.234.357.42.083.837.125 1.25.125.453 0 .857-.058 1.21-.175.353-.121.63-.307.828-.556.204-.254.306-.58.306-.979 0-.382-.113-.697-.339-.946-.22-.25-.544-.465-.969-.648-.425-.188-.933-.37-1.524-.547a11.004 11.004 0 0 1-1.896-.756c-.525-.282-.925-.633-1.201-1.054-.271-.42-.406-.962-.406-1.626 0-.642.146-1.215.439-1.718.298-.504.74-.897 1.325-1.179.59-.288 1.328-.432 2.211-.432.353 0 .707.025 1.06.075.36.05.701.116 1.027.2.331.077.632.168.903.273.27.105.505.213.704.324l-.174 1.81a5.549 5.549 0 0 0-1.077-.565 6.325 6.325 0 0 0-1.118-.349 4.604 4.604 0 0 0-1.018-.124c-.404 0-.773.058-1.11.174a1.828 1.828 0 0 0-.812.531c-.204.233-.306.531-.306.897 0 .332.088.611.265.838.176.227.455.429.836.606.381.177.873.36 1.474.548.945.298 1.69.603 2.237.913.546.304.933.663 1.16 1.078.231.416.347.936.347 1.56 0 .67-.15 1.265-.447 1.785-.293.52-.754.93-1.383 1.229-.624.298-1.43.448-2.419.448Zm17.795 2.64a72.973 72.973 0 0 0-1.027-.88c-.342-.288-.679-.576-1.01-.864l-1.309-1.112 1.06-1.095 1.698 1.336a671.662 671.662 0 0 0 2.31 1.826l-1.722.788Zm-3.636-2.632c-1.027 0-1.921-.163-2.683-.49a5.243 5.243 0 0 1-1.888-1.344 5.742 5.742 0 0 1-1.118-1.959 7.24 7.24 0 0 1-.373-2.332c0-1.145.229-2.18.687-3.104a5.32 5.32 0 0 1 2.03-2.208c.894-.548 1.99-.822 3.287-.822.983 0 1.847.158 2.593.474.75.315 1.377.755 1.88 1.32a5.527 5.527 0 0 1 1.142 1.95c.255.741.382 1.538.382 2.39 0 1.167-.232 2.213-.696 3.137a5.277 5.277 0 0 1-2.03 2.191c-.883.531-1.954.797-3.213.797Zm-.041-1.643c.679 0 1.267-.122 1.764-.365a3.464 3.464 0 0 0 1.234-.996c.326-.42.566-.9.72-1.436.16-.537.24-1.099.24-1.685 0-.63-.085-1.217-.256-1.76a4.22 4.22 0 0 0-.762-1.427 3.392 3.392 0 0 0-1.234-.955c-.491-.232-1.06-.348-1.706-.348-.668 0-1.25.119-1.748.357a3.535 3.535 0 0 0-1.25.987c-.332.42-.58.9-.746 1.436a5.764 5.764 0 0 0-.248 1.71c0 .597.08 1.165.24 1.701a4.35 4.35 0 0 0 .729 1.436c.331.415.748.744 1.25.988.503.238 1.094.357 1.773.357Zm10.632 1.444V28.97h1.947V40.5l-.704-1.411H88.5v1.718h-7.595Z"/></svg>