<svg xmlns="http://www.w3.org/2000/svg" width="240" height="240" fill="none"><path fill="#871DA1" stroke="#141414" d="M199.095 213.857c0 .994-.474 2.014-1.481 3.055-1.009 1.043-2.522 2.073-4.514 3.07-3.983 1.992-9.778 3.8-16.981 5.324-14.397 3.046-34.31 4.934-56.322 4.934-22.011 0-41.924-1.888-56.321-4.934-7.203-1.524-12.999-3.332-16.981-5.324-1.993-.997-3.506-2.027-4.514-3.07-1.007-1.041-1.481-2.061-1.481-3.055 0-.994.474-2.013 1.48-3.054 1.01-1.043 2.522-2.073 4.515-3.07 3.982-1.992 9.778-3.8 16.98-5.324 14.398-3.046 34.31-4.934 56.322-4.934s41.925 1.888 56.322 4.934c7.203 1.524 12.998 3.332 16.981 5.324 1.992.997 3.505 2.027 4.514 3.07 1.007 1.041 1.481 2.06 1.481 3.054Z"/><path fill="#871DA1" d="M199.595 190.675H40v23.182h159.595v-23.182Z"/><path fill="#B450CD" stroke="#141414" d="M199.095 190.391c0 .993-.474 2.013-1.481 3.054-1.009 1.043-2.522 2.073-4.514 3.07-3.983 1.992-9.778 3.8-16.981 5.324-14.397 3.046-34.31 4.934-56.322 4.934-22.011 0-41.924-1.888-56.321-4.934-7.203-1.524-12.999-3.332-16.981-5.324-1.993-.997-3.506-2.027-4.514-3.07-1.007-1.041-1.481-2.061-1.481-3.054 0-.994.474-2.014 1.48-3.055 1.01-1.043 2.522-2.073 4.515-3.07 3.982-1.992 9.778-3.8 16.98-5.324 14.398-3.046 34.31-4.934 56.322-4.934s41.925 1.888 56.322 4.934c7.203 1.524 12.998 3.332 16.981 5.324 1.992.997 3.505 2.027 4.514 3.07 1.007 1.041 1.481 2.061 1.481 3.055Z"/><path fill="#871DA1" stroke="#141414" d="M183.057 188.109c0 .554-.322 1.173-1.119 1.848-.792.672-1.99 1.343-3.581 1.995-3.177 1.304-7.805 2.488-13.56 3.487-11.502 1.996-27.412 3.233-44.999 3.233-17.588 0-33.497-1.237-45-3.233-5.755-.999-10.382-2.183-13.56-3.487-1.59-.652-2.789-1.323-3.581-1.995-.797-.675-1.119-1.294-1.119-1.848s.322-1.173 1.119-1.848c.792-.672 1.99-1.343 3.581-1.996 3.178-1.303 7.805-2.488 13.56-3.486 11.503-1.996 27.412-3.233 45-3.233 17.587 0 33.497 1.237 44.999 3.233 5.755.998 10.383 2.183 13.56 3.486 1.591.653 2.789 1.324 3.581 1.996.797.675 1.119 1.294 1.119 1.848Z"/><path fill="#871DA1" d="M183.557 164.25H56.037v23.859h127.52V164.25Z"/><path fill="#B450CD" stroke="#141414" d="M183.057 164.25c0 .554-.322 1.173-1.119 1.848-.792.672-1.99 1.343-3.581 1.996-3.177 1.303-7.805 2.488-13.56 3.486-11.502 1.996-27.412 3.233-44.999 3.233-17.588 0-33.497-1.237-45-3.233-5.755-.998-10.382-2.183-13.56-3.486-1.59-.653-2.789-1.324-3.581-1.996-.797-.675-1.119-1.294-1.119-1.848s.322-1.173 1.119-1.848c.792-.672 1.99-1.343 3.581-1.995 3.178-1.304 7.805-2.488 13.56-3.487 11.503-1.996 27.412-3.233 45-3.233 17.587 0 33.497 1.237 44.999 3.233 5.755.999 10.383 2.183 13.56 3.487 1.591.652 2.789 1.323 3.581 1.995.797.675 1.119 1.294 1.119 1.848Z"/><path fill="#591C6F" stroke="#141414" d="M159.816 164.128c0 .175-.121.452-.615.814-.48.351-1.221.711-2.222 1.066-1.997.707-4.915 1.352-8.554 1.897-7.269 1.088-17.329 1.764-28.453 1.764-11.124 0-21.184-.676-28.454-1.764-3.639-.545-6.556-1.19-8.553-1.897-1.002-.355-1.742-.715-2.223-1.066-.494-.362-.615-.639-.615-.814 0-.176.121-.453.615-.814.48-.352 1.221-.712 2.223-1.067 1.997-.707 4.914-1.352 8.553-1.897 7.27-1.088 17.33-1.763 28.454-1.763 11.124 0 21.184.675 28.453 1.763 3.639.545 6.557 1.19 8.554 1.897 1.001.355 1.742.715 2.222 1.067.494.361.615.638.615.814Z"/><path fill="#0071E4" stroke="#141414" d="M193.701 87.772c0 40.542-33.008 73.412-73.729 73.412-40.722 0-73.73-32.87-73.73-73.412 0-40.542 33.008-73.412 73.73-73.412 40.721 0 73.729 32.87 73.729 73.412Z"/><path fill="#141414" d="M124.873 66.52h7.909l-12.363 50.407h-7.91l12.364-50.407Z"/><path fill="#141414" fill-rule="evenodd" d="M141.14 74.378v7.95l15.195 8.977h.009l-15.204 8.977v7.95l25.757-16.927-25.757-16.927ZM100.156 74.378v7.95l-15.194 8.977h-.01l15.204 8.977v7.95L74.399 91.305l25.757-16.927Z" clip-rule="evenodd"/><path fill="#fff" fill-rule="evenodd" d="M98.804 70.416v7.95L83.61 87.343H83.6l15.204 8.976v7.951L73.046 87.343l25.758-16.927ZM139.515 70.416v7.95l15.195 8.977h.009l-15.204 8.976v7.951l25.758-16.927-25.758-16.927Z" clip-rule="evenodd"/><path fill="#fff" d="M122.063 63.931h7.91l-12.364 50.407H109.7l12.363-50.407Z"/><path fill="#FFD600" stroke="#141414" d="m84.817 33.806-.469-1.26-.469 1.26-2.607 7.016-7.046 2.596-1.273.47 1.273.468 7.046 2.596 2.607 7.016.47 1.261.468-1.26 2.607-7.017 7.046-2.596 1.273-.469-1.273-.469-7.046-2.596-2.607-7.016ZM216.28 17.993l-.468-1.26-.469 1.26-2.607 7.016-7.046 2.596-1.273.47 1.273.468 7.046 2.596 2.607 7.016.469 1.261.468-1.261 2.608-7.016 7.046-2.596 1.274-.469-1.274-.469-7.046-2.596-2.608-7.016ZM173.024 107.51l-.468-1.261-.469 1.261-1.449 3.896-3.913 1.442-1.274.469 1.274.47 3.913 1.442 1.449 3.896.469 1.261.468-1.261 1.448-3.897 3.914-1.441 1.273-.47-1.273-.469-3.914-1.442-1.448-3.896ZM52.126 6.826l-.468-1.261-.469 1.26-1.448 3.897-3.914 1.442-1.273.47 1.273.469 3.914 1.442 1.448 3.896.469 1.261.468-1.261 1.448-3.896 3.914-1.442 1.274-.47-1.274-.469-3.914-1.442-1.448-3.896ZM155.362 33.806l-.469-1.26-.468 1.26-1.385 3.726-3.743 1.38-1.274.468 1.274.47 3.743 1.379 1.385 3.726.468 1.26.469-1.26 1.384-3.726 3.743-1.38 1.273-.469-1.273-.469-3.743-1.379-1.384-3.725ZM112.978 132.02l-.469-1.262-.469 1.262-2.196 5.912-5.939 2.188-1.273.469 1.273.469 5.939 2.188 2.196 5.912.469 1.261.469-1.261 2.197-5.912 5.938-2.188 1.274-.469-1.274-.469-5.938-2.188-2.197-5.912ZM33.249 136.02l-.469-1.262-.468 1.262-2.197 5.912-5.939 2.188-1.273.469 1.273.469 5.939 2.188 2.197 5.912.468 1.261.469-1.261 2.197-5.912 5.938-2.188 1.274-.469-1.274-.469-5.938-2.188-2.197-5.912Z"/><path stroke="#141414" stroke-linecap="round" d="M56.531 165v23M40.49 190.178v24.063M199.099 190.246v24.063M183.057 164.25v23.719"/></svg>