<svg xmlns="http://www.w3.org/2000/svg" width="241" height="240" fill="none"><path fill="#0071E4" stroke="#141414" d="M88.606 35.172c1.115-1.803 3.304-2.078 5.698-.717l129.236 73.48c3.606 2.051 6.544 7.114 6.544 11.278v82.995c0 2.841-1.39 4.635-3.59 4.635h-2.911c-.955 0-2.014-.34-3.082-.99L94.185 128.944c-3.453-2.102-6.228-6.916-6.316-10.954l-1.66-76.896c-.028-1.297.228-2.416.745-3.252l1.652-2.67Z"/><g clip-path="url(#a)"><rect width="163" height="96" fill="#D9D9D9" rx="8" transform="matrix(.86603 .5 0 1 85.658 32.969)"/><path fill="#AFAFAF" d="m86.09 33.719 140.297 81v19l-140.296-81z"/><path stroke="#141414" d="M.433.75h162v19h-162z" transform="matrix(.86603 .5 0 1 85.716 32.752)"/><g clip-path="url(#b)"><path fill="#fff" d="m85.658 51.969 141.162 81.5v20l-141.162-81.5z"/><path stroke="#141414" d="M114.236 68.969v18.5"/><path fill="#FFD600" d="m98.682 67.97 2.093 3.625-3.36 1.94-2.734-1.345-.388-1.686 4.389-2.534Z"/><path stroke="#141414" d="m97.98 71.77.917 1.59-1.055.609-.918-1.59"/><path stroke="#141414" d="m98.88 71.25.917 1.59-.9.52-.918-1.59M99.999 67.067l-5.511 3.182v2.12l1.837 1.062.612-.354m4.899-2.828-2.755 1.59"/><ellipse cx="101.224" cy="68.481" fill="#FFD600" stroke="#141414" rx="4.902" ry="2.83" transform="matrix(.5 1.5 -.5 .5 84.852 -117.595)"/></g><path stroke="#141414" d="M.433.75h162v19h-162z" transform="matrix(.86603 .5 0 1 85.716 51.752)"/><g clip-path="url(#c)"><path fill="#fff" d="m85.658 89.969 141.162 81.5v20l-141.162-81.5z"/><path stroke="#141414" d="M114.236 106.969v18.5"/><path fill="#FFD600" d="m98.682 105.97 2.093 3.625-3.36 1.94-2.734-1.345-.388-1.686 4.389-2.534Z"/><path stroke="#141414" d="m97.98 109.77.917 1.59-1.055.609-.918-1.59"/><path stroke="#141414" d="m98.88 109.25.917 1.59-.9.52-.918-1.59M99.999 105.067l-5.511 3.182v2.121l1.837 1.061.612-.354m4.899-2.828-2.755 1.591"/><ellipse cx="101.224" cy="106.481" fill="#FFD600" stroke="#141414" rx="4.902" ry="2.83" transform="matrix(.5 1.5 -.5 .5 103.852 -98.595)"/></g><path stroke="#141414" d="M.433.75h162v19h-162z" transform="matrix(.86603 .5 0 1 85.716 89.752)"/><g clip-path="url(#d)"><path fill="#fff" d="m85.658 70.969 141.162 81.5v20l-141.162-81.5z"/><path stroke="#141414" d="M114.236 87.969v18.5"/></g><path stroke="#141414" d="M.433.75h162v19h-162z" transform="matrix(.86603 .5 0 1 85.716 70.752)"/><g clip-path="url(#e)"><path fill="#fff" d="m85.658 108.969 141.162 81.5v20l-141.162-81.5z"/><path stroke="#141414" d="M114.236 125.969v18.5"/><path fill="#FFD600" d="m98.682 124.97 2.093 3.625-3.36 1.94-2.734-1.345-.388-1.686 4.389-2.534Z"/><path stroke="#141414" d="m97.98 128.77.917 1.59-1.055.609-.918-1.59"/><path stroke="#141414" d="m98.88 128.25.917 1.59-.9.52-.918-1.59M99.999 124.067l-5.511 3.182v2.121l1.837 1.061.612-.354m4.899-2.828-2.755 1.591"/><ellipse cx="101.224" cy="125.481" fill="#FFD600" stroke="#141414" rx="4.902" ry="2.83" transform="matrix(.5 1.5 -.5 .5 113.352 -89.095)"/></g><path stroke="#141414" d="M.433.75h162v19h-162z" transform="matrix(.86603 .5 0 1 85.716 108.753)"/></g><rect width="162" height="95" x=".433" y=".75" stroke="#141414" rx="7.5" transform="matrix(.86603 .5 0 1 85.716 32.752)"/><path fill="#871DA1" stroke="#141414" d="M42.502 61.936c0-.834.59-1.848 1.312-2.257l18.025-10.211c.315-.178.618-.218.852-.112l2.668 1.208c.338.153.495.589.413 1.15L62.98 71.002c-.098.681-.526 1.413-1.067 1.828L47.192 84.115c-.441.338-.889.412-1.185.195l-3.18-2.326c-.21-.153-.325-.44-.325-.805V61.936Z"/><rect width="23.385" height="23.385" x=".433" y=".25" fill="#B73DC2" stroke="#141414" rx="1.5" transform="matrix(.86603 -.5 0 1 45.493 61.734)"/><path fill="#fff" fill-rule="evenodd" d="M63.074 61.563c.041.01.047.059.012.11l-8.014 11.91c-.04.058-.113.094-.156.077l-4.481-1.835c-.037-.015-.037-.066 0-.115l1.681-2.218c.042-.055.112-.087.152-.069l2.118.955c.043.02.12-.018.16-.078l6.079-9.227c.036-.055.105-.092.15-.081l2.299.571Z" clip-rule="evenodd"/><path fill="#E49908" stroke="#141414" d="M20.729 117.229c0-1.933 1.357-4.283 3.03-5.249l10.307-5.951c1.085-.626 2.088-.535 2.628.24l.733 1.051c.685.982 1.948 1.111 3.323.34l8.603-4.822c.98-.55 1.892-.514 2.45.094l1.232 1.347c.424.462.607 1.218.516 2.123l-1.79 17.741c-.176 1.741-1.321 3.677-2.747 4.643l-22.7 15.374c-.934.632-1.853.752-2.489.323l-2.294-1.546c-.517-.349-.803-1.03-.803-1.91v-23.798Z"/><rect width="35.432" height="25.648" x=".433" y=".25" fill="#FFD600" stroke="#141414" rx="3.5" transform="matrix(.86603 -.5 0 1 22.728 120.392)"/><defs><clipPath id="a"><rect width="163" height="96" fill="#fff" rx="8" transform="matrix(.86603 .5 0 1 85.658 32.969)"/></clipPath><clipPath id="b"><path fill="#fff" d="m85.658 51.969 141.162 81.5v20l-141.162-81.5z"/></clipPath><clipPath id="c"><path fill="#fff" d="m85.658 89.969 141.162 81.5v20l-141.162-81.5z"/></clipPath><clipPath id="d"><path fill="#fff" d="m85.658 70.969 141.162 81.5v20l-141.162-81.5z"/></clipPath><clipPath id="e"><path fill="#fff" d="m85.658 108.969 141.162 81.5v20l-141.162-81.5z"/></clipPath></defs></svg>