<svg xmlns="http://www.w3.org/2000/svg" width="128" height="128" fill="none"><mask id="a" width="104" height="70" x="21" y="24" maskUnits="userSpaceOnUse" style="mask-type:luminance"><path fill="#fff" d="M124.619 24.401H21.786v68.846H124.62V24.401Z"/></mask><g mask="url(#a)"><path fill="#0071E4" stroke="#141414" d="M105.952 83.045c0 1.267-.843 2.527-2.493 3.718-1.643 1.187-4.041 2.267-7.028 3.179-5.97 1.823-14.234 2.954-23.375 2.954-9.14 0-17.405-1.131-23.375-2.954-2.987-.912-5.384-1.992-7.028-3.179-1.65-1.191-2.493-2.451-2.493-3.718 0-1.268.842-2.528 2.493-3.719 1.644-1.187 4.04-2.267 7.028-3.178 5.97-1.823 14.234-2.954 23.375-2.954 9.14 0 17.405 1.131 23.375 2.954 2.987.911 5.385 1.991 7.028 3.178 1.65 1.191 2.493 2.451 2.493 3.719Z"/><path fill="#0071E4" d="M39.884 83.044V56.462l66.327.877v25.706H39.884Z"/><path fill="#0071E4" stroke="#141414" stroke-linejoin="bevel" d="M73.06 74.69 22.224 50.346v-2.522l101.722.08v2.442L73.059 74.69Z"/><path fill="#0071E4" stroke="#141414" stroke-linejoin="bevel" d="m22.063 47.809 51.14-23.132 50.744 23.132-50.744 23.683-51.14-23.683Z"/><path stroke="#141414" d="M40.14 58.873v24.172M105.937 58.873v24.172"/><path fill="#B73DC2" stroke="#141414" d="M101.88 58.937 74.34 47.9l-1.088 1.22 27.111 10.864v14.63h1.517V58.938ZM99.829 76.094l.631-.513a1.11 1.11 0 0 1 1.401.001l.626.513c.37.301.503.805.33 1.248l-.628 1.62c-.363.938-1.696.939-2.062 0l-.63-1.617c-.174-.445-.04-.95.332-1.252Z"/><path fill="#B73DC2" stroke="#141414" d="M101.156 76.553a1.21 1.21 0 0 0 1.211-1.206 1.21 1.21 0 0 0-1.211-1.207 1.21 1.21 0 0 0-1.212 1.207 1.21 1.21 0 0 0 1.212 1.206Z"/></g><path fill="#B73DC2" d="m45.278 86.582-2.475.478a1.113 1.113 0 0 1-1.297-.864 1.123 1.123 0 0 1 .776-1.315l1.995-.585c.22-.064.447-.097.676-.097h1.01c.195 0 .39.024.58.071l2.509.623a1.114 1.114 0 0 1-.483 2.172l-2.358-.478a2.401 2.401 0 0 0-.933-.005Z"/><path stroke="#141414" d="M38.933 86.938a9.292 9.292 0 0 1 13.214-.165"/><path stroke="#141414" d="M38.933 89.513a9.292 9.292 0 0 1 13.214-.166"/><path fill="#B73DC2" fill-rule="evenodd" d="M30.72 98.93c6.196 0 11.22-5.064 11.22-11.31 0-6.247-5.024-11.311-11.22-11.311-6.197 0-11.221 5.064-11.221 11.31 0 6.247 5.024 11.31 11.22 11.31Zm0-4.211c3.89 0 7.043-3.178 7.043-7.1 0-3.921-3.153-7.1-7.044-7.1-3.89 0-7.044 3.179-7.044 7.1 0 3.922 3.154 7.1 7.044 7.1Z" clip-rule="evenodd"/><mask id="b" width="23" height="23" x="19" y="76" maskUnits="userSpaceOnUse" style="mask-type:luminance"><path fill="#fff" fill-rule="evenodd" d="M30.72 98.93c6.196 0 11.22-5.064 11.22-11.31 0-6.247-5.024-11.311-11.22-11.311-6.197 0-11.221 5.064-11.221 11.31 0 6.247 5.024 11.31 11.22 11.31Zm0-4.211c3.89 0 7.043-3.178 7.043-7.1 0-3.921-3.153-7.1-7.044-7.1-3.89 0-7.044 3.179-7.044 7.1 0 3.922 3.154 7.1 7.044 7.1Z" clip-rule="evenodd"/></mask><g mask="url(#b)"><path fill="#141414" d="M40.73 87.62c0 5.572-4.482 10.089-10.01 10.089v2.44c6.865 0 12.43-5.61 12.43-12.53h-2.42ZM30.72 77.53c5.528 0 10.01 4.516 10.01 10.09h2.42c0-6.921-5.565-12.531-12.43-12.531v2.44ZM20.71 87.62c0-5.574 4.482-10.09 10.01-10.09v-2.441c-6.865 0-12.43 5.61-12.43 12.53h2.42Zm10.01 10.089c-5.528 0-10.01-4.517-10.01-10.09h-2.42c0 6.92 5.565 12.53 12.43 12.53v-2.44Zm5.833-10.09c0 3.248-2.611 5.88-5.833 5.88v2.44c4.559 0 8.254-3.725 8.254-8.32h-2.42Zm-5.833-5.88c3.222 0 5.833 2.633 5.833 5.88h2.421c0-4.595-3.695-8.32-8.254-8.32v2.44Zm-5.834 5.88c0-3.247 2.612-5.88 5.834-5.88V79.3c-4.559 0-8.254 3.725-8.254 8.32h2.42Zm5.834 5.88c-3.222 0-5.834-2.632-5.834-5.88h-2.42c0 4.595 3.695 8.32 8.254 8.32v-2.44Z"/></g><path fill="#B73DC2" fill-rule="evenodd" d="M60.65 98.93c6.198 0 11.221-5.064 11.221-11.31 0-6.247-5.023-11.311-11.22-11.311-6.197 0-11.22 5.064-11.22 11.31 0 6.247 5.023 11.31 11.22 11.31Zm0-4.211c3.89 0 7.045-3.178 7.045-7.1 0-3.921-3.154-7.1-7.044-7.1-3.89 0-7.044 3.179-7.044 7.1 0 3.922 3.153 7.1 7.044 7.1Z" clip-rule="evenodd"/><mask id="c" width="23" height="23" x="49" y="76" maskUnits="userSpaceOnUse" style="mask-type:luminance"><path fill="#fff" fill-rule="evenodd" d="M60.65 98.93c6.198 0 11.221-5.064 11.221-11.31 0-6.247-5.023-11.311-11.22-11.311-6.197 0-11.22 5.064-11.22 11.31 0 6.247 5.023 11.31 11.22 11.31Zm0-4.211c3.89 0 7.045-3.178 7.045-7.1 0-3.921-3.154-7.1-7.044-7.1-3.89 0-7.044 3.179-7.044 7.1 0 3.922 3.153 7.1 7.044 7.1Z" clip-rule="evenodd"/></mask><g mask="url(#c)"><path fill="#141414" d="M70.661 87.62c0 5.572-4.481 10.089-10.01 10.089v2.44c6.865 0 12.43-5.61 12.43-12.53h-2.42Zm-10.01-10.09c5.529 0 10.01 4.516 10.01 10.09h2.42c0-6.921-5.565-12.531-12.43-12.531v2.44Zm-10.01 10.09c0-5.574 4.482-10.09 10.01-10.09v-2.441c-6.865 0-12.43 5.61-12.43 12.53h2.42Zm10.01 10.089c-5.528 0-10.01-4.517-10.01-10.09h-2.42c0 6.92 5.565 12.53 12.43 12.53v-2.44Zm5.833-10.09c0 3.248-2.611 5.88-5.833 5.88v2.44c4.559 0 8.254-3.725 8.254-8.32h-2.42Zm-5.833-5.88c3.222 0 5.833 2.633 5.833 5.88h2.421c0-4.595-3.695-8.32-8.254-8.32v2.44Zm-5.833 5.88c0-3.247 2.611-5.88 5.833-5.88V79.3c-4.559 0-8.254 3.725-8.254 8.32h2.42Zm5.833 5.88c-3.222 0-5.833-2.632-5.833-5.88h-2.421c0 4.595 3.695 8.32 8.254 8.32v-2.44Z"/></g><path fill="#FFD600" stroke="#141414" d="M15.365 85.862h4.749v3.515h-4.749a.607.607 0 0 1-.605-.61v-2.295c0-.337.27-.61.605-.61ZM76.107 85.862h-4.75v3.515h4.75a.607.607 0 0 0 .605-.61v-2.295c0-.337-.27-.61-.605-.61Z"/><path fill="#fff" d="M65.566 87.764c.642-.488.322-2.007-.714-3.395-1.036-1.387-2.397-2.117-3.039-1.63-.642.487-.322 2.007.714 3.394 1.037 1.388 2.397 2.118 3.04 1.63Z"/></svg>