<svg xmlns="http://www.w3.org/2000/svg" width="128" height="128" fill="none"><path fill="#0071E4" stroke="#141414" d="M18.2 15.112a3.5 3.5 0 0 1 2.8-1.4h88a4.5 4.5 0 0 1 4.5 4.5v47.679a3.5 3.5 0 0 1-1.764 3.039l-3.978 2.273a3.498 3.498 0 0 1-1.893.458l-84.286-3.788a3.5 3.5 0 0 1-3.334-3.248l-3.14-43.958a3.5 3.5 0 0 1 .691-2.35l2.404-3.205Z"/><g clip-path="url(#a)"><rect width="96" height="55" x="14" y="17.212" fill="#D9D9D9" rx="4"/><path fill="#B73DC2" d="M14.5 17.712h95v9h-95z"/><path stroke="#141414" d="M14.5 17.712h95v9h-95z"/><circle cx="20" cy="22.212" r="1.5" stroke="#141414"/><circle cx="26" cy="22.212" r="1.5" fill="#0071E4" stroke="#141414"/><circle cx="32" cy="22.212" r="1.5" fill="#fff" stroke="#141414"/><path stroke="#141414" d="m101.499 20.712 3 3M101.499 23.712l3-3"/><path fill="#0071E4" stroke="#141414" d="M51.333 37.93v-.934l-.777.518-12.853 8.568-.624.416.624.416 12.852 8.569.778.518V50.759l-.243-.146-6.868-4.113 6.868-4.117.243-.145V37.93ZM73.73 37.514l-.777-.518V42.238l.243.145 6.868 4.117-6.868 4.113-.243.146V56l.777-.518 12.852-8.569.624-.416-.624-.416-12.852-8.568ZM63.1 34.003h-.392l-.093.381-6.27 25.705-.151.619H61.235l.093-.382 6.27-25.705.151-.618h-4.648Z"/><circle cx="32.506" cy="62.337" r="2.768" fill="#FFD600" stroke="#141414"/><circle cx="95.366" cy="62.337" r="2.768" fill="#B73DC2" stroke="#141414"/></g><rect width="95" height="54" x="14.5" y="17.712" stroke="#141414" rx="3.5"/><path fill="#0071E4" d="m50.96 91.57 13.105-7.493 12.978 7.51-13.003 7.767-13.08-7.784Z"/><path fill="#141414" d="m50.96 91.57-.247-.434-.008.864.256-.43Zm13.105-7.493.25-.433-.248-.144-.25.143.248.434Zm12.978 7.51.256.429-.006-.862-.25.433ZM64.04 99.353l-.256.43h.512l-.256-.43Zm-12.83-7.35 13.103-7.493-.496-.868-13.104 7.493.496.868Zm12.605-7.494 12.978 7.51.5-.866-12.978-7.51-.5.866Zm12.972 6.647-13.004 7.768.513.858L77.3 92.016l-.513-.859Zm-12.491 7.767-13.08-7.783-.51.86 13.078 7.783.512-.86Z"/><path fill="#B73DC2" stroke="#141414" d="m51.14 92.03 12.706 7.336v14.172c0 .276-.194.388-.433.25l-12.273-7.086V92.03Z"/><path fill="#FFD600" stroke="#141414" d="m76.86 92.03-12.706 7.336v14.172c0 .276.194.388.433.25l12.273-7.086V92.03Z"/><path stroke="#141414" d="M32.601 64.634v13.213a2 2 0 0 0 2 2H93.4a2 2 0 0 0 2-2V64.634M64 79.9v4.73"/><defs><clipPath id="a"><rect width="96" height="55" x="14" y="17.212" fill="#fff" rx="4"/></clipPath></defs></svg>