<svg xmlns="http://www.w3.org/2000/svg" width="105" height="49" fill="none"><path fill="#0071E4" stroke="#141414" stroke-width="3" d="M103.243 12.442 5.78 2.198 2.122 37.007 99.585 47.25l3.658-34.808Z"/><path fill="#fff" d="m37.151 12.956-2.136 20.327-3.665-.385-7.387-13.712-.147-.015-1.344 12.794-4.243-.446 2.136-20.328 3.724.392 7.319 13.694.176.019 1.344-12.784 4.223.444Z"/><mask id="a" width="23" height="26" x="16" y="9" maskUnits="userSpaceOnUse" style="mask-type:luminance"><path fill="#fff" d="M38.699 11.691 19.076 9.63 16.661 32.61l19.622 2.063L38.7 11.69Z"/><path fill="#000" d="m37.151 12.956-2.136 20.327-3.665-.385-7.387-13.712-.147-.015-1.344 12.794-4.243-.446 2.136-20.328 3.724.392 7.319 13.694.176.019 1.344-12.784 4.223.444Z"/></mask><g mask="url(#a)"><path fill="#141414" d="m37.151 12.956 1.227.129.13-1.243-1.226-.129-.13 1.243Zm-2.136 20.327-.13 1.243 1.226.129.13-1.243-1.226-.129Zm-3.665-.385-1.083.6.31.575.642.068.13-1.243Zm-7.386-13.712 1.083-.6-.31-.574-.643-.068-.13 1.242Zm-.147-.015.13-1.242-1.226-.13-.13 1.243 1.226.129Zm-1.345 12.794-.13 1.242 1.226.13.13-1.243-1.226-.129Zm-4.243-.446-1.227-.129-.13 1.242 1.226.13.13-1.243Zm2.136-20.327.13-1.243-1.226-.129-.13 1.243 1.226.128Zm3.724.39 1.085-.596-.309-.578-.645-.067-.131 1.242Zm7.319 13.695-1.085.597.308.578.646.068.13-1.242Zm.176.019-.13 1.242 1.226.13.13-1.243-1.226-.129Zm1.344-12.784.13-1.242-1.226-.13-.13 1.243 1.226.129Zm2.997.315-2.137 20.328 2.453.257 2.137-20.327-2.453-.258Zm-.78 19.214-3.665-.385-.26 2.485 3.664.385.261-2.485Zm-2.712.257-7.386-13.712-2.166 1.2 7.386 13.712 2.166-1.2Zm-8.339-14.354-.147-.015-.261 2.484.147.016.261-2.485Zm-1.504 1.098-1.345 12.794 2.453.258L25.043 19.3l-2.453-.258Zm.012 11.68-4.243-.445-.26 2.484 4.242.446.261-2.484Zm-3.147.926 2.137-20.328-2.453-.257-2.137 20.327 2.453.258Zm.78-19.214 3.724.391.26-2.484-3.723-.392-.261 2.485Zm2.769-.254 7.319 13.694 2.17-1.193-7.319-13.695-2.17 1.194Zm8.273 14.34.177.018.26-2.484-.176-.019-.26 2.485Zm1.534-1.095 1.343-12.784-2.453-.258-1.343 12.784 2.453.258Zm-.014-11.67 4.224.443.26-2.485-4.223-.443-.26 2.484Z"/></g><path fill="#fff" d="m39.691 33.775 2.137-20.328L55.35 14.87l-.372 3.543-9.28-.975-.509 4.843 8.584.903-.372 3.543-8.584-.902-.51 4.853 9.319.98-.373 3.543-13.562-1.425Z"/><mask id="b" width="19" height="26" x="38" y="11" maskUnits="userSpaceOnUse" style="mask-type:luminance"><path fill="#fff" d="m56.788 13.592-16.25-1.708-2.415 22.982 16.25 1.708 2.416-22.981Z"/><path fill="#000" d="m39.691 33.775 2.137-20.328L55.35 14.87l-.372 3.543-9.28-.975-.509 4.843 8.584.903-.372 3.543-8.584-.902-.51 4.853 9.319.98-.373 3.543-13.562-1.425Z"/></mask><g mask="url(#b)"><path fill="#141414" d="m39.691 33.775-1.226-.129-.13 1.242 1.226.13.13-1.243Zm2.137-20.328.13-1.242-1.226-.129-.13 1.242 1.226.13ZM55.35 14.87l1.227.129.13-1.243-1.226-.129-.13 1.243Zm-.372 3.543-.13 1.242 1.226.13.13-1.243-1.226-.129Zm-9.28-.975.131-1.242-1.226-.13-.131 1.243 1.226.129Zm-.509 4.843-1.226-.129-.13 1.243 1.226.129.13-1.243Zm8.584.903L55 23.31l.13-1.242-1.226-.129-.13 1.243Zm-.372 3.543-.13 1.242 1.226.13.13-1.243-1.226-.129Zm-8.584-.902.13-1.242-1.226-.13-.13 1.243 1.226.129Zm-.51 4.853-1.227-.128-.13 1.242 1.226.129.13-1.243Zm9.319.98 1.226.129.13-1.242-1.226-.13-.13 1.243Zm-.373 3.543-.13 1.243 1.226.129.13-1.243-1.226-.129Zm-12.335-1.296 2.136-20.328-2.453-.258-2.136 20.328 2.453.258Zm.78-19.214 13.522 1.42.261-2.484-13.523-1.42-.26 2.484Zm12.426.05-.372 3.543 2.453.258.372-3.543-2.453-.258Zm.985 2.43-9.28-.976-.261 2.485 9.28.975.26-2.484Zm-10.637.138-.51 4.843 2.454.258.509-4.843-2.453-.258Zm.587 6.215 8.584.902.26-2.485-8.583-.902-.261 2.485Zm7.488-.47-.372 3.544 2.452.258.373-3.544-2.453-.257Zm.984 2.43-8.584-.901-.26 2.484 8.583.902.261-2.484Zm-9.94.212-.51 4.854 2.452.257.51-4.853-2.453-.258Zm.585 6.225 9.32.98.26-2.485-9.319-.98-.26 2.485Zm8.223-.392-.372 3.544 2.453.257.372-3.543-2.453-.258Zm.985 2.43-13.562-1.425-.261 2.484 13.562 1.426.26-2.485Z"/></g><path fill="#fff" d="m63.525 36.28-3.606-20.931 4.635.487 1.837 14.473.167.018 5.15-13.74 3.968.418 2.167 14.538.177.018 4.81-13.804 4.634.487-7.879 19.724-4.135-.435-2.425-13.692-.157-.016-5.208 12.89-4.135-.435Z"/><mask id="c" width="35" height="27" x="55" y="13" maskUnits="userSpaceOnUse" style="mask-type:luminance"><path fill="#fff" d="m89.288 17.008-30.967-3.255-2.415 22.982 30.967 3.255 2.415-22.982Z"/><path fill="#000" d="m63.525 36.28-3.606-20.931 4.635.487 1.837 14.473.167.018 5.15-13.74 3.968.418 2.167 14.538.177.018 4.81-13.804 4.634.487-7.879 19.724-4.135-.435-2.425-13.692-.157-.016-5.208 12.89-4.135-.435Z"/></mask><g mask="url(#c)"><path fill="#141414" d="m63.525 36.28-1.215.218.16.927.924.097.13-1.242Zm-3.606-20.931.13-1.243-1.626-.17.28 1.63 1.216-.218Zm4.635.487 1.223-.163-.124-.978-.969-.102-.13 1.243Zm1.837 14.473-1.223.162.124.979.969.101.13-1.242Zm.167.017-.13 1.243.945.1.338-.902-1.153-.44Zm5.15-13.739.13-1.242-.946-.1-.338.902 1.153.44Zm3.968.418 1.22-.19-.143-.953-.947-.1-.13 1.243Zm2.167 14.538-1.22.19.143.952.947.1.13-1.242Zm.176.018-.13 1.242.969.102.325-.931-1.164-.413Zm4.81-13.805.13-1.242-.969-.102-.324.932 1.163.412Zm4.635.488 1.143.465.614-1.537-1.626-.17-.131 1.242Zm-7.879 19.724-.13 1.242.924.097.35-.873-1.144-.466Zm-4.135-.435-1.214.224.163.922.92.096.131-1.242Zm-2.425-13.692 1.214-.224-.163-.922-.92-.096-.13 1.242Zm-.157-.016.13-1.243-.92-.096-.35.868 1.14.47Zm-5.208 12.89-.13 1.242.92.096.351-.868-1.141-.47Zm-2.92-.653L61.134 15.13l-2.43.435 3.605 20.932 2.43-.436ZM59.788 16.59l4.635.487.261-2.485-4.635-.487-.26 2.485Zm3.543-.593 1.837 14.473 2.447-.325-1.838-14.473-2.447.325Zm2.93 15.553.166.018.261-2.485-.166-.017-.261 2.484Zm1.45-.784 5.15-13.74-2.307-.88-5.15 13.739 2.307.88Zm3.865-12.937 3.97.417.26-2.485-3.968-.417-.261 2.485Zm2.88-.636 2.168 14.538 2.439-.379-2.168-14.538-2.439.38Zm3.257 15.591.176.019.261-2.485-.176-.018-.261 2.484Zm1.47-.811 4.809-13.805-2.326-.825-4.81 13.805 2.327.825Zm3.516-12.975 4.635.487.26-2.485-4.634-.487L82.699 19Zm3.622-1.221-7.879 19.724 2.286.931 7.88-19.724-2.287-.931Zm-6.605 18.947-4.135-.434-.262 2.484 4.136.435.26-2.485Zm-3.052.584L74.24 23.617l-2.428.448 2.425 13.692 2.428-.447ZM73.156 22.6l-.157-.017-.261 2.485.157.016.26-2.484Zm-1.429.755-5.208 12.89 2.282.94 5.209-12.89-2.283-.94ZM67.79 35.472l-4.135-.434-.26 2.484 4.134.435.261-2.485Z"/></g></svg>