<svg xmlns="http://www.w3.org/2000/svg" width="240" height="240" fill="none"><path fill="#0071E4" stroke="#141414" d="M126.733 12.36c1.225-1.197 3.157-1.204 5.211-.019l87.35 50.386c3.588 2.07 6.498 7.109 6.498 11.252v56.465c0 2.588-1.157 4.327-3.059 4.598l-3.15.449c-1.044.149-2.252-.155-3.482-.875l-85.049-49.785c-3.463-2.028-6.298-6.826-6.444-10.905l-1.954-54.776c-.063-1.754.388-3.184 1.276-4.051l2.803-2.74Z"/><path fill="#B450CD" stroke="#141414" d="M15.02 164.419c0-4.131 2.892-9.153 6.469-11.235l86.196-50.171c1.874-1.091 3.66-1.196 4.899-.287l2.656 1.947c1.107.811 1.686 2.364 1.617 4.335l-1.968 56.056c-.144 4.116-3.026 8.957-6.521 10.955l-84.326 48.206c-1.609.92-3.158 1.116-4.347.549l-.292.538.292-.538-2.559-1.22c-1.348-.643-2.116-2.21-2.116-4.318v-54.817Z"/><path stroke="#FFD600" d="m118.23 90.917-17.885-10.325c-3.826-2.21-3.826-5.791 0-8l23.398-13.51"/><path stroke="#FFD600" d="m114.59 88.81 35.384 20.429c3.826 2.209 3.826 5.791 0 8l-36.86 21.281"/><g clip-path="url(#a)"><rect width="116" height="70" fill="#fff" rx="8" transform="matrix(.86603 .5 0 1 121.771 11)"/><path fill="#AFAFAF" d="M121.771 11 222.23 69v18L121.77 29z"/><g clip-path="url(#b)"><path stroke="#141414" d="M142.879 41.745v16.703"/></g><path stroke="#141414" d="M.433.75h115v17h-115z" transform="matrix(.86603 .5 0 1 121.829 28.784)"/><g clip-path="url(#c)"><path stroke="#141414" d="M142.879 58.799v16.649"/></g><path stroke="#141414" d="M.433.75h115v17h-115z" transform="matrix(.86603 .5 0 1 121.829 45.783)"/><g clip-path="url(#d)"><path stroke="#141414" d="M142.879 75.576v16.872"/></g><path stroke="#141414" d="M.433.75h115v17h-115z" transform="matrix(.86603 .5 0 1 121.829 62.783)"/></g><rect width="115" height="69" x=".433" y=".75" stroke="#141414" rx="7.5" transform="matrix(.86603 .5 0 1 121.829 10.784)"/><g clip-path="url(#e)"><rect width="116" height="70" fill="#fff" rx="8" transform="matrix(.86603 -.5 0 1 17.77 159)"/><path fill="#AFAFAF" d="m17.77 159 100.46-58v18L17.77 177z"/><g clip-path="url(#f)"><path stroke="#141414" d="M38.88 165.329v16.744"/></g><path stroke="#141414" d="M.433.25h115v17h-115z" transform="matrix(.86603 -.5 0 1 17.828 177.217)"/><g clip-path="url(#g)"><path stroke="#141414" d="M38.88 182.49v16.583"/></g><path stroke="#141414" d="M.433.25h115v17h-115z" transform="matrix(.86603 -.5 0 1 17.828 194.217)"/><g clip-path="url(#h)"><path stroke="#141414" d="M38.88 199.33v16.743"/></g><path stroke="#141414" d="M.433.25h115v17h-115z" transform="matrix(.86603 -.5 0 1 17.828 211.217)"/></g><rect width="115" height="69" x=".433" y=".25" stroke="#141414" rx="7.5" transform="matrix(.86603 -.5 0 1 17.828 159.217)"/><path fill="#871DA1" stroke="#141414" d="M188.973 164.973c0-.834-.589-1.848-1.312-2.257l-18.025-10.211c-.315-.178-.617-.218-.852-.111l-2.668 1.207c-.338.153-.494.589-.413 1.15l2.792 19.289c.098.68.526 1.412 1.068 1.827l14.72 11.285c.442.338.889.412 1.185.196l3.18-2.327c.209-.153.325-.439.325-.804v-19.244Z"/><rect width="23.385" height="23.385" x="-.433" y=".25" fill="#B450CD" stroke="#141414" rx="1.5" transform="matrix(-.86603 -.5 0 1 185.232 164.338)"/><path fill="#fff" fill-rule="evenodd" d="M182.756 168.015c.052.024.035.085-.034.124l-9.772 5.493c-.057.032-.127.035-.157.007l-3.869-3.681c-.032-.032-.004-.087.062-.119l1.861-.906c.056-.027.12-.027.147.001l2.156 2.211c.03.03.103.027.161-.008l7.038-4.137c.048-.028.107-.036.143-.02l2.264 1.035Z" clip-rule="evenodd"/><path fill="#E49908" stroke="#141414" d="M31.495 90.927c0-1.933 1.357-4.284 3.03-5.25l10.307-5.95c1.085-.627 2.088-.535 2.629.24l.732 1.05c.685.982 1.948 1.112 3.324.34l8.602-4.822c.98-.55 1.892-.514 2.45.094l1.232 1.347c.424.462.607 1.218.516 2.124l-1.79 17.74c-.176 1.742-1.321 3.678-2.747 4.643l-22.7 15.374c-.934.633-1.853.752-2.489.324l-2.294-1.547c-.517-.348-.803-1.03-.803-1.91V90.927Z"/><rect width="35.432" height="25.648" x=".433" y=".25" fill="#FFD600" stroke="#141414" rx="3.5" transform="matrix(.86603 -.5 0 1 33.494 94.09)"/><defs><clipPath id="a"><rect width="116" height="70" fill="#fff" rx="8" transform="matrix(.86603 .5 0 1 121.771 11)"/></clipPath><clipPath id="b"><path fill="#fff" d="M121.771 29 222.23 87v18L121.77 47z"/></clipPath><clipPath id="c"><path fill="#fff" d="m121.771 46 100.459 58v18L121.77 64z"/></clipPath><clipPath id="d"><path fill="#fff" d="m121.771 63 100.459 58v18L121.77 81z"/></clipPath><clipPath id="e"><rect width="116" height="70" fill="#fff" rx="8" transform="matrix(.86603 -.5 0 1 17.77 159)"/></clipPath><clipPath id="f"><path fill="#fff" d="m17.77 177 100.46-58v18L17.77 195z"/></clipPath><clipPath id="g"><path fill="#fff" d="m17.77 194 100.46-58v18L17.77 212z"/></clipPath><clipPath id="h"><path fill="#fff" d="m17.77 211 100.46-58v18L17.77 229z"/></clipPath></defs></svg>